<svg width="435" height="198" viewBox="0 0 435 198" fill="none" xmlns="http://www.w3.org/2000/svg">
<path d="M211.76 105.69H195.71V72.6801C195.71 68.2501 199.3 64.6602 203.73 64.6602H259.51V80.7102H211.75V105.69H211.76Z" fill="#0666F9"/>
<path d="M265.91 35.0902C264.91 32.2402 263.65 29.4603 262.16 26.7903C257.45 18.4403 250.67 11.8302 241.99 7.15024C233.49 2.57024 223.56 0.240234 212.48 0.240234H203.74C199.31 0.240234 195.72 3.83025 195.72 8.26025V16.2802V37.7402C195.72 42.1702 199.31 45.7603 203.74 45.7603H252.24C252.8 48.6203 253.09 51.6202 253.09 54.7702C253.09 60.2002 252.22 65.2702 250.5 69.8503C249.85 71.6003 249.06 73.3002 248.16 74.9302C244.9 80.7902 240.36 85.2902 234.28 88.6702C228.17 92.0802 220.84 93.8002 212.48 93.8002H181.52V16.0602H165.47V109.84H212.48C223.6 109.84 233.56 107.43 242.08 102.68C250.72 97.8702 257.48 91.1602 262.18 82.7202C263.47 80.4002 264.6 77.9502 265.53 75.4802C267.93 69.1102 269.14 62.1502 269.14 54.7702C269.13 47.7902 268.05 41.1602 265.91 35.0902ZM211.76 29.7303V16.2903H212.47C220.86 16.2903 228.23 17.9702 234.36 21.2702C238.55 23.5302 242 26.3203 244.79 29.7303H211.76Z" fill="url(#paint0_linear_40_2)"/>
<path d="M252.24 45.7803H203.74C199.31 45.7803 195.72 42.1903 195.72 37.7603V8.28027H211.77V29.7403H244.81C246.06 31.2603 247.18 32.9003 248.18 34.6703C249.22 36.5203 250.09 38.4503 250.79 40.4303V40.4403C251.38 42.1403 251.86 43.9203 252.24 45.7803Z" fill="url(#paint1_linear_40_2)"/>
<path d="M207.52 93.8101H181.52L165.47 109.86H207.52" fill="url(#paint2_linear_40_2)"/>
<path d="M211.76 109.86H195.71V72.6704C195.71 68.2404 199.3 64.6504 203.73 64.6504H254.13V80.7004H211.75L211.76 109.86Z" fill="url(#paint3_linear_40_2)"/>
<path d="M242.08 102.7C250.72 97.89 257.48 91.18 262.18 82.74C263.47 80.42 264.6 77.97 265.53 75.5C267.93 69.13 269.14 62.17 269.14 54.79H253.09C253.09 60.22 252.22 65.29 250.5 69.87C249.85 71.62 249.06 73.32 248.16 74.95C244.9 80.81 240.36 85.31 234.28 88.69L242.08 102.7Z" fill="url(#paint4_linear_40_2)"/>
<path d="M23.5301 150.08C26.3701 151.58 28.5601 153.69 30.1201 156.41C31.6701 159.13 32.4501 162.26 32.4501 165.82C32.4501 169.34 31.6701 172.47 30.1201 175.2C28.5601 177.93 26.3601 180.05 23.5101 181.56C20.6601 183.06 17.3501 183.82 13.5901 183.82H0.100098V147.83H13.5801C17.3801 147.82 20.6901 148.57 23.5301 150.08ZM20.7601 173.5C22.6101 171.69 23.5301 169.13 23.5301 165.81C23.5301 162.5 22.6101 159.91 20.7601 158.07C18.9101 156.23 16.3301 155.3 13.0201 155.3H8.87009V176.22H13.0201C16.3301 176.22 18.9201 175.32 20.7601 173.5Z" fill="white"/>
<path d="M65.7202 155.2V183.8H56.9502V179.9C56.0602 181.16 54.8602 182.18 53.3402 182.95C51.8202 183.72 50.1402 184.1 48.2902 184.1C46.1002 184.1 44.1702 183.61 42.5002 182.64C40.8302 181.67 39.5302 180.26 38.6002 178.41C37.6802 176.57 37.2202 174.4 37.2202 171.9V155.2H45.9302V170.73C45.9302 172.65 46.4302 174.13 47.4202 175.19C48.4102 176.25 49.7402 176.78 51.4202 176.78C53.1302 176.78 54.4802 176.25 55.4702 175.19C56.4602 174.13 56.9602 172.65 56.9602 170.73V155.2H65.7202Z" fill="white"/>
<path d="M117.11 158.13C119.21 160.28 120.26 163.27 120.26 167.1V183.81H111.55V168.28C111.55 166.43 111.06 165.01 110.09 164C109.12 162.99 107.77 162.49 106.07 162.49C104.36 162.49 103.02 162.99 102.05 164C101.08 165.01 100.59 166.44 100.59 168.28V183.81H91.8802V168.28C91.8802 166.43 91.3902 165.01 90.4202 164C89.4502 162.99 88.1001 162.49 86.4001 162.49C84.6901 162.49 83.3502 162.99 82.3802 164C81.4102 165.01 80.9202 166.44 80.9202 168.28V183.81H72.1501V155.21H80.9202V158.8C81.8102 157.6 82.9702 156.66 84.4102 155.95C85.8502 155.25 87.4702 154.9 89.2802 154.9C91.4302 154.9 93.3601 155.36 95.0501 156.28C96.7401 157.2 98.0701 158.52 99.0201 160.23C100.01 158.66 101.36 157.38 103.07 156.39C104.78 155.4 106.64 154.9 108.66 154.9C112.18 154.9 115.01 155.97 117.11 158.13Z" fill="white"/>
<path d="M171.5 158.13C173.6 160.28 174.65 163.27 174.65 167.1V183.81H165.94V168.28C165.94 166.43 165.45 165.01 164.48 164C163.51 162.99 162.16 162.49 160.46 162.49C158.75 162.49 157.41 162.99 156.44 164C155.47 165.01 154.98 166.44 154.98 168.28V183.81H146.27V168.28C146.27 166.43 145.78 165.01 144.81 164C143.84 162.99 142.49 162.49 140.79 162.49C139.08 162.49 137.74 162.99 136.77 164C135.8 165.01 135.31 166.44 135.31 168.28V183.81H126.54V155.21H135.31V158.8C136.2 157.6 137.36 156.66 138.8 155.95C140.24 155.25 141.86 154.9 143.67 154.9C145.82 154.9 147.75 155.36 149.44 156.28C151.13 157.2 152.46 158.52 153.41 160.23C154.4 158.66 155.75 157.38 157.46 156.39C159.17 155.4 161.03 154.9 163.05 154.9C166.57 154.9 169.4 155.97 171.5 158.13Z" fill="white"/>
<path d="M181.54 150.87C180.57 149.96 180.08 148.85 180.08 147.51C180.08 146.14 180.57 145.01 181.54 144.1C182.51 143.2 183.77 142.74 185.31 142.74C186.81 142.74 188.05 143.19 189.03 144.1C190 145.01 190.49 146.14 190.49 147.51C190.49 148.84 190 149.96 189.03 150.87C188.06 151.78 186.82 152.23 185.31 152.23C183.77 152.23 182.52 151.78 181.54 150.87ZM189.67 155.2V183.8H180.9V155.2H189.67Z" fill="white"/>
<path d="M222.94 171.61H203.1C203.24 173.39 203.81 174.75 204.82 175.69C205.83 176.63 207.07 177.1 208.54 177.1C210.73 177.1 212.25 176.18 213.1 174.33H222.43C221.95 176.21 221.09 177.9 219.84 179.41C218.59 180.91 217.03 182.09 215.15 182.95C213.27 183.81 211.17 184.23 208.85 184.23C206.05 184.23 203.55 183.63 201.37 182.44C199.18 181.24 197.47 179.54 196.24 177.31C195.01 175.09 194.39 172.49 194.39 169.52C194.39 166.55 195 163.95 196.21 161.73C197.42 159.51 199.12 157.8 201.31 156.6C203.5 155.4 206.01 154.81 208.85 154.81C211.62 154.81 214.08 155.39 216.23 156.55C218.38 157.71 220.07 159.37 221.28 161.52C222.49 163.67 223.1 166.18 223.1 169.06C223.09 169.86 223.04 170.72 222.94 171.61ZM214.12 166.74C214.12 165.24 213.61 164.04 212.58 163.15C211.55 162.26 210.27 161.82 208.74 161.82C207.27 161.82 206.03 162.25 205.02 163.1C204.01 163.95 203.39 165.17 203.15 166.74H214.12Z" fill="white"/>
<path d="M264.92 148.18V152.95H255.44V183.81H249.6V152.95H240.06V148.18H264.92Z" fill="white"/>
<path d="M280.17 156.31C281.59 155.51 283.27 155.11 285.22 155.11V161.16H283.73C281.44 161.16 279.71 161.74 278.53 162.9C277.35 164.06 276.76 166.08 276.76 168.95V183.82H270.92V155.57H276.76V159.67C277.62 158.23 278.75 157.11 280.17 156.31Z" fill="white"/>
<path d="M290.53 162.02C291.71 159.83 293.32 158.13 295.35 156.92C297.38 155.71 299.63 155.1 302.09 155.1C304.31 155.1 306.25 155.54 307.91 156.41C309.57 157.28 310.89 158.37 311.88 159.67V155.57H317.77V183.82H311.88V179.62C310.89 180.95 309.54 182.06 307.83 182.95C306.12 183.84 304.17 184.28 301.99 184.28C299.56 184.28 297.34 183.66 295.33 182.41C293.31 181.16 291.72 179.42 290.54 177.18C289.36 174.94 288.77 172.4 288.77 169.57C288.76 166.72 289.35 164.21 290.53 162.02ZM310.67 164.58C309.87 163.14 308.82 162.05 307.52 161.3C306.22 160.55 304.82 160.17 303.32 160.17C301.82 160.17 300.41 160.54 299.12 161.27C297.82 162.01 296.77 163.08 295.97 164.5C295.17 165.92 294.77 167.6 294.77 169.55C294.77 171.5 295.17 173.21 295.97 174.68C296.77 176.15 297.83 177.27 299.15 178.04C300.47 178.81 301.86 179.19 303.33 179.19C304.83 179.19 306.23 178.81 307.53 178.06C308.83 177.31 309.88 176.21 310.68 174.75C311.48 173.3 311.89 171.6 311.89 169.65C311.89 167.7 311.48 166.02 310.67 164.58Z" fill="white"/>
<path d="M325.39 162.02C326.57 159.83 328.18 158.13 330.21 156.92C332.24 155.71 334.51 155.1 337 155.1C338.85 155.1 340.67 155.5 342.46 156.3C344.25 157.1 345.68 158.17 346.74 159.5V145.86H352.63V183.79H346.74V179.54C345.78 180.91 344.46 182.04 342.77 182.92C341.08 183.81 339.14 184.25 336.95 184.25C334.49 184.25 332.24 183.63 330.21 182.38C328.18 181.13 326.57 179.39 325.39 177.15C324.21 174.91 323.62 172.37 323.62 169.54C323.62 166.72 324.21 164.21 325.39 162.02ZM345.53 164.58C344.73 163.14 343.68 162.05 342.38 161.3C341.08 160.55 339.68 160.17 338.18 160.17C336.68 160.17 335.27 160.54 333.98 161.27C332.68 162.01 331.63 163.08 330.83 164.5C330.03 165.92 329.63 167.6 329.63 169.55C329.63 171.5 330.03 173.21 330.83 174.68C331.63 176.15 332.69 177.27 334.01 178.04C335.33 178.81 336.72 179.19 338.19 179.19C339.69 179.19 341.09 178.81 342.39 178.06C343.69 177.31 344.74 176.21 345.54 174.75C346.34 173.3 346.75 171.6 346.75 169.65C346.75 167.7 346.33 166.02 345.53 164.58Z" fill="white"/>
<path d="M360.73 150.74C360.01 150.02 359.65 149.13 359.65 148.07C359.65 147.01 360.01 146.12 360.73 145.4C361.45 144.68 362.34 144.32 363.4 144.32C364.42 144.32 365.3 144.68 366.01 145.4C366.73 146.12 367.09 147.01 367.09 148.07C367.09 149.13 366.73 150.02 366.01 150.74C365.29 151.46 364.42 151.82 363.4 151.82C362.34 151.82 361.45 151.46 360.73 150.74ZM366.27 155.56V183.81H360.43V155.56H366.27Z" fill="white"/>
<path d="M394.28 156.49C396.04 157.41 397.42 158.78 398.41 160.59C399.4 162.4 399.9 164.59 399.9 167.15V183.81H394.11V168.02C394.11 165.49 393.48 163.55 392.21 162.2C390.95 160.85 389.22 160.18 387.03 160.18C384.84 160.18 383.11 160.85 381.83 162.2C380.55 163.55 379.91 165.49 379.91 168.02V183.81H374.07V155.56H379.91V158.79C380.87 157.63 382.09 156.72 383.58 156.07C385.07 155.42 386.65 155.1 388.32 155.1C390.53 155.1 392.52 155.56 394.28 156.49Z" fill="white"/>
<path d="M424.63 156.41C426.32 157.28 427.65 158.37 428.6 159.67V155.57H434.49V184.28C434.49 186.88 433.94 189.19 432.85 191.23C431.76 193.27 430.18 194.86 428.11 196.02C426.04 197.18 423.57 197.76 420.7 197.76C416.87 197.76 413.69 196.86 411.16 195.07C408.63 193.28 407.2 190.84 406.85 187.77H412.64C413.08 189.24 414.03 190.43 415.49 191.33C416.94 192.24 418.68 192.69 420.69 192.69C423.05 192.69 424.95 191.97 426.41 190.54C427.86 189.1 428.59 187.02 428.59 184.29V179.57C427.6 180.9 426.26 182.02 424.57 182.93C422.88 183.84 420.96 184.29 418.8 184.29C416.34 184.29 414.09 183.67 412.06 182.42C410.03 181.17 408.42 179.43 407.24 177.19C406.06 174.95 405.47 172.41 405.47 169.58C405.47 166.74 406.06 164.23 407.24 162.04C408.42 159.85 410.03 158.15 412.06 156.94C414.09 155.73 416.34 155.12 418.8 155.12C421 155.1 422.94 155.54 424.63 156.41ZM427.4 164.58C426.6 163.14 425.55 162.05 424.25 161.3C422.95 160.55 421.55 160.17 420.05 160.17C418.55 160.17 417.14 160.54 415.85 161.27C414.55 162.01 413.5 163.08 412.7 164.5C411.9 165.92 411.5 167.6 411.5 169.55C411.5 171.5 411.9 173.21 412.7 174.68C413.5 176.15 414.56 177.27 415.88 178.04C417.2 178.81 418.59 179.19 420.06 179.19C421.56 179.19 422.96 178.81 424.26 178.06C425.56 177.31 426.61 176.21 427.41 174.75C428.21 173.3 428.62 171.6 428.62 169.65C428.62 167.7 428.2 166.02 427.4 164.58Z" fill="white"/>
<defs>
<linearGradient id="paint0_linear_40_2" x1="204.912" y1="111.34" x2="220.702" y2="18.0345" gradientUnits="userSpaceOnUse">
<stop stop-color="#0063F4"/>
<stop offset="1" stop-color="#05D2FD"/>
</linearGradient>
<linearGradient id="paint1_linear_40_2" x1="255.215" y1="27.7638" x2="218.545" y2="27.1974" gradientUnits="userSpaceOnUse">
<stop offset="0.0101" stop-color="#0A6592"/>
<stop offset="0.9899" stop-color="white" stop-opacity="0"/>
</linearGradient>
<linearGradient id="paint2_linear_40_2" x1="215.917" y1="101.835" x2="174.347" y2="101.835" gradientUnits="userSpaceOnUse">
<stop offset="0.1805" stop-color="#0A6592"/>
<stop offset="0.9899" stop-color="white" stop-opacity="0"/>
</linearGradient>
<linearGradient id="paint3_linear_40_2" x1="218.326" y1="113.837" x2="234.731" y2="20.5313" gradientUnits="userSpaceOnUse">
<stop stop-color="#0063F4"/>
<stop offset="1" stop-color="#05D2FD"/>
</linearGradient>
<linearGradient id="paint4_linear_40_2" x1="244.137" y1="118.206" x2="260.338" y2="24.6956" gradientUnits="userSpaceOnUse">
<stop stop-color="#0063F4"/>
<stop offset="1" stop-color="#05D2FD"/>
</linearGradient>
</defs>
</svg>
