<svg width="571" height="111" viewBox="0 0 571 111" fill="none" xmlns="http://www.w3.org/2000/svg">
<path d="M47.24 106.25H31.1899V73.2402C31.1899 68.8102 34.78 65.2202 39.21 65.2202H95V81.2703H47.24V106.25Z" fill="#0666F9"/>
<path d="M101.38 35.66C100.38 32.81 99.1199 30.03 97.6299 27.36C92.9199 19.01 86.14 12.4001 77.46 7.72006C68.96 3.14006 59.03 0.810059 47.95 0.810059H39.21C34.78 0.810059 31.1899 4.40005 31.1899 8.83005V16.8501V38.3101C31.1899 42.7401 34.78 46.3301 39.21 46.3301H87.71C88.27 49.1901 88.5601 52.1901 88.5601 55.3401C88.5601 60.7701 87.69 65.84 85.97 70.42C85.32 72.17 84.5299 73.8701 83.6299 75.5001C80.3699 81.3601 75.83 85.8601 69.75 89.2401C63.64 92.6501 56.31 94.3701 47.95 94.3701H16.99V16.6301H0.939941V110.41H47.95C59.07 110.41 69.03 108 77.55 103.25C86.19 98.4401 92.9499 91.73 97.6499 83.29C98.9399 80.97 100.07 78.52 101 76.05C103.4 69.68 104.61 62.7201 104.61 55.3401C104.61 48.3501 103.52 41.72 101.38 35.66ZM47.23 30.3V16.86H47.9399C56.3299 16.86 63.7001 18.5401 69.8401 21.8401C74.0301 24.1001 77.48 26.89 80.27 30.3H47.23Z" fill="url(#paint0_linear_36_58)"/>
<path d="M87.71 46.3399H39.21C34.78 46.3399 31.1899 42.7499 31.1899 38.3199V8.83984H47.24V30.2998H80.28C81.53 31.8198 82.6499 33.4598 83.6499 35.2298C84.6799 37.0798 85.56 39.0098 86.26 40.9898V40.9998C86.85 42.6998 87.33 44.4799 87.71 46.3399Z" fill="url(#paint1_linear_36_58)"/>
<path d="M42.99 94.3799H16.99L0.939941 110.43H42.99" fill="url(#paint2_linear_36_58)"/>
<path d="M47.24 110.43H31.1899V73.2402C31.1899 68.8102 34.78 65.2202 39.21 65.2202H89.6101V81.2703H47.23V110.43H47.24Z" fill="url(#paint3_linear_36_58)"/>
<path d="M77.55 103.27C86.19 98.4599 92.9499 91.7499 97.6499 83.3099C98.9399 80.9899 100.07 78.5399 101 76.0699C103.4 69.6999 104.61 62.7399 104.61 55.3599H88.5601C88.5601 60.7899 87.69 65.8599 85.97 70.4399C85.32 72.1899 84.5299 73.8899 83.6299 75.5199C80.3699 81.3799 75.83 85.8799 69.75 89.2599L77.55 103.27Z" fill="url(#paint4_linear_36_58)"/>
<path d="M160.14 48.3897C162.98 49.8897 165.17 51.9997 166.73 54.7197C168.28 57.4397 169.06 60.5697 169.06 64.1297C169.06 67.6497 168.28 70.7797 166.73 73.5097C165.17 76.2397 162.97 78.3597 160.12 79.8697C157.27 81.3697 153.96 82.1297 150.2 82.1297H136.72V46.1397H150.2C153.99 46.1297 157.31 46.8897 160.14 48.3897ZM157.38 71.8197C159.23 70.0097 160.15 67.4497 160.15 64.1297C160.15 60.8197 159.23 58.2297 157.38 56.3897C155.53 54.5397 152.95 53.6197 149.64 53.6197H145.49V74.5397H149.64C152.95 74.5297 155.53 73.6297 157.38 71.8197Z" fill="white"/>
<path d="M202.23 53.5198V82.1198H193.46V78.2197C192.57 79.4797 191.37 80.4998 189.85 81.2698C188.33 82.0398 186.65 82.4197 184.8 82.4197C182.61 82.4197 180.68 81.9298 179.01 80.9598C177.34 79.9898 176.04 78.5797 175.11 76.7297C174.19 74.8897 173.73 72.7197 173.73 70.2197V53.5098H182.44V69.0397C182.44 70.9597 182.94 72.4398 183.93 73.4998C184.92 74.5598 186.25 75.0898 187.93 75.0898C189.64 75.0898 190.99 74.5598 191.98 73.4998C192.97 72.4398 193.47 70.9597 193.47 69.0397V53.5098H202.23V53.5198Z" fill="white"/>
<path d="M253.52 56.4398C255.62 58.5898 256.67 61.5798 256.67 65.4098V82.1198H247.96V66.5899C247.96 64.7399 247.47 63.3198 246.5 62.3098C245.53 61.2998 244.18 60.7998 242.48 60.7998C240.77 60.7998 239.43 61.2998 238.46 62.3098C237.49 63.3198 237 64.7499 237 66.5899V82.1198H228.29V66.5899C228.29 64.7399 227.8 63.3198 226.83 62.3098C225.86 61.2998 224.51 60.7998 222.81 60.7998C221.1 60.7998 219.76 61.2998 218.79 62.3098C217.82 63.3198 217.33 64.7499 217.33 66.5899V82.1198H208.56V53.5198H217.33V57.1098C218.22 55.9098 219.38 54.9698 220.82 54.2698C222.26 53.5698 223.88 53.2198 225.69 53.2198C227.84 53.2198 229.77 53.6798 231.46 54.5998C233.15 55.5198 234.48 56.8398 235.43 58.5498C236.42 56.9798 237.77 55.6998 239.48 54.7098C241.19 53.7198 243.05 53.2198 245.07 53.2198C248.59 53.2098 251.42 54.2898 253.52 56.4398Z" fill="white"/>
<path d="M307.81 56.4398C309.91 58.5898 310.96 61.5798 310.96 65.4098V82.1198H302.25V66.5899C302.25 64.7399 301.76 63.3198 300.79 62.3098C299.82 61.2998 298.47 60.7998 296.77 60.7998C295.06 60.7998 293.72 61.2998 292.75 62.3098C291.78 63.3198 291.29 64.7499 291.29 66.5899V82.1198H282.58V66.5899C282.58 64.7399 282.09 63.3198 281.12 62.3098C280.15 61.2998 278.8 60.7998 277.1 60.7998C275.39 60.7998 274.05 61.2998 273.08 62.3098C272.11 63.3198 271.62 64.7499 271.62 66.5899V82.1198H262.85V53.5198H271.62V57.1098C272.51 55.9098 273.67 54.9698 275.11 54.2698C276.55 53.5698 278.17 53.2198 279.98 53.2198C282.13 53.2198 284.06 53.6798 285.75 54.5998C287.44 55.5198 288.77 56.8398 289.72 58.5498C290.71 56.9798 292.06 55.6998 293.77 54.7098C295.48 53.7198 297.34 53.2198 299.36 53.2198C302.88 53.2098 305.7 54.2898 307.81 56.4398Z" fill="white"/>
<path d="M317.75 49.1798C316.78 48.2698 316.29 47.1598 316.29 45.8198C316.29 44.4498 316.78 43.3198 317.75 42.4098C318.72 41.4998 319.98 41.0498 321.52 41.0498C323.02 41.0498 324.26 41.4998 325.24 42.4098C326.21 43.3198 326.7 44.4498 326.7 45.8198C326.7 47.1498 326.21 48.2698 325.24 49.1798C324.27 50.0898 323.03 50.5398 321.52 50.5398C319.98 50.5398 318.72 50.0898 317.75 49.1798ZM325.88 53.5198V82.1198H317.11V53.5198H325.88Z" fill="white"/>
<path d="M359.04 69.9196H339.2C339.34 71.6996 339.91 73.0596 340.92 73.9996C341.93 74.9396 343.17 75.4096 344.64 75.4096C346.83 75.4096 348.35 74.4896 349.2 72.6396H358.53C358.05 74.5196 357.19 76.2096 355.94 77.7196C354.69 79.2196 353.13 80.3996 351.25 81.2596C349.37 82.1096 347.27 82.5396 344.94 82.5396C342.14 82.5396 339.64 81.9396 337.46 80.7496C335.27 79.5496 333.56 77.8496 332.33 75.6196C331.1 73.3996 330.48 70.7997 330.48 67.8297C330.48 64.8597 331.09 62.2596 332.3 60.0396C333.51 57.8196 335.21 56.1096 337.4 54.9096C339.59 53.7096 342.1 53.1196 344.94 53.1196C347.71 53.1196 350.17 53.6996 352.32 54.8596C354.47 56.0196 356.16 57.6797 357.37 59.8297C358.58 61.9797 359.19 64.4896 359.19 67.3696C359.2 68.1796 359.14 69.0296 359.04 69.9196ZM350.22 65.0496C350.22 63.5496 349.71 62.3497 348.68 61.4597C347.65 60.5697 346.37 60.1296 344.84 60.1296C343.37 60.1296 342.13 60.5596 341.12 61.4096C340.11 62.2596 339.49 63.4796 339.25 65.0496H350.22Z" fill="white"/>
<path d="M401.44 46.4897V51.2598H391.96V82.1198H386.12V51.2598H376.58V46.4897H401.44Z" fill="white"/>
<path d="M416.59 54.6197C418.01 53.8197 419.69 53.4097 421.64 53.4097V59.4597H420.15C417.86 59.4597 416.13 60.0397 414.95 61.1997C413.77 62.3597 413.18 64.3797 413.18 67.2497V82.1197H407.34V53.8697H413.18V57.9697C414.03 56.5397 415.17 55.4197 416.59 54.6197Z" fill="white"/>
<path d="M426.84 60.3297C428.02 58.1397 429.63 56.4397 431.66 55.2297C433.69 54.0197 435.94 53.4097 438.4 53.4097C440.62 53.4097 442.56 53.8497 444.22 54.7197C445.88 55.5897 447.2 56.6797 448.19 57.9697V53.8697H454.09V82.1197H448.19V77.9197C447.2 79.2497 445.85 80.3597 444.14 81.2497C442.43 82.1397 440.48 82.5797 438.3 82.5797C435.87 82.5797 433.65 81.9597 431.64 80.7097C429.62 79.4597 428.03 77.7197 426.85 75.4797C425.67 73.2397 425.08 70.6997 425.08 67.8697C425.07 65.0297 425.66 62.5197 426.84 60.3297ZM446.98 62.8997C446.18 61.4597 445.13 60.3697 443.83 59.6197C442.53 58.8697 441.13 58.4897 439.63 58.4897C438.13 58.4897 436.73 58.8597 435.43 59.5897C434.13 60.3297 433.08 61.3997 432.28 62.8197C431.48 64.2397 431.08 65.9197 431.08 67.8697C431.08 69.8197 431.48 71.5297 432.28 72.9997C433.08 74.4697 434.14 75.5897 435.46 76.3597C436.78 77.1297 438.17 77.5097 439.64 77.5097C441.14 77.5097 442.54 77.1297 443.84 76.3797C445.14 75.6297 446.19 74.5297 446.99 73.0697C447.79 71.6197 448.19 69.9197 448.19 67.9697C448.19 66.0197 447.79 64.3297 446.98 62.8997Z" fill="white"/>
<path d="M461.59 60.3297C462.77 58.1397 464.38 56.4397 466.41 55.2297C468.44 54.0197 470.71 53.4097 473.2 53.4097C475.05 53.4097 476.87 53.8097 478.66 54.6197C480.45 55.4197 481.88 56.4897 482.94 57.8197V44.1797H488.84V82.1097H482.94V77.8597C481.98 79.2297 480.66 80.3597 478.97 81.2397C477.28 82.1297 475.34 82.5697 473.15 82.5697C470.69 82.5697 468.44 81.9497 466.41 80.6997C464.38 79.4497 462.77 77.7097 461.59 75.4697C460.41 73.2297 459.82 70.6897 459.82 67.8597C459.83 65.0297 460.42 62.5197 461.59 60.3297ZM481.74 62.8997C480.94 61.4597 479.89 60.3697 478.59 59.6197C477.29 58.8697 475.89 58.4897 474.39 58.4897C472.89 58.4897 471.49 58.8597 470.19 59.5897C468.89 60.3297 467.84 61.3997 467.04 62.8197C466.24 64.2397 465.84 65.9197 465.84 67.8697C465.84 69.8197 466.24 71.5297 467.04 72.9997C467.84 74.4697 468.9 75.5897 470.22 76.3597C471.54 77.1297 472.93 77.5097 474.4 77.5097C475.9 77.5097 477.3 77.1297 478.6 76.3797C479.9 75.6297 480.95 74.5297 481.75 73.0697C482.55 71.6197 482.95 69.9197 482.95 67.9697C482.95 66.0197 482.54 64.3297 481.74 62.8997Z" fill="white"/>
<path d="M496.84 49.0596C496.12 48.3396 495.76 47.4496 495.76 46.3896C495.76 45.3296 496.12 44.4396 496.84 43.7196C497.56 42.9996 498.45 42.6396 499.51 42.6396C500.54 42.6396 501.41 42.9996 502.12 43.7196C502.84 44.4396 503.2 45.3296 503.2 46.3896C503.2 47.4496 502.84 48.3396 502.12 49.0596C501.4 49.7796 500.53 50.1396 499.51 50.1396C498.44 50.1296 497.55 49.7696 496.84 49.0596ZM502.37 53.8796V82.1296H496.53V53.8796H502.37Z" fill="white"/>
<path d="M530.29 54.7997C532.05 55.7197 533.42 57.0897 534.42 58.8997C535.41 60.7097 535.91 62.8997 535.91 65.4597V82.1197H530.12V66.3297C530.12 63.7997 529.49 61.8597 528.22 60.5097C526.96 59.1597 525.23 58.4897 523.04 58.4897C520.85 58.4897 519.12 59.1597 517.84 60.5097C516.56 61.8597 515.92 63.7997 515.92 66.3297V82.1197H510.08V53.8697H515.92V57.0997C516.88 55.9397 518.1 55.0297 519.59 54.3797C521.08 53.7297 522.66 53.4097 524.33 53.4097C526.53 53.4097 528.52 53.8797 530.29 54.7997Z" fill="white"/>
<path d="M560.53 54.7196C562.22 55.5896 563.55 56.6796 564.5 57.9696V53.8696H570.4V82.5796C570.4 85.1796 569.85 87.4896 568.76 89.5296C567.67 91.5596 566.09 93.1596 564.02 94.3196C561.95 95.4796 559.48 96.0596 556.61 96.0596C552.78 96.0596 549.6 95.1596 547.08 93.3696C544.55 91.5796 543.12 89.1396 542.77 86.0696H548.56C549 87.5396 549.95 88.7296 551.41 89.6296C552.86 90.5396 554.6 90.9896 556.61 90.9896C558.97 90.9896 560.87 90.2696 562.33 88.8396C563.78 87.3996 564.51 85.3196 564.51 82.5896V77.8696C563.52 79.1996 562.18 80.3196 560.49 81.2296C558.8 82.1396 556.88 82.5896 554.72 82.5896C552.26 82.5896 550.01 81.9696 547.98 80.7196C545.95 79.4696 544.34 77.7296 543.16 75.4896C541.98 73.2496 541.39 70.7096 541.39 67.8796C541.39 65.0396 541.98 62.5296 543.16 60.3396C544.34 58.1496 545.95 56.4496 547.98 55.2396C550.01 54.0296 552.26 53.4196 554.72 53.4196C556.9 53.4096 558.84 53.8496 560.53 54.7196ZM563.3 62.8996C562.5 61.4596 561.45 60.3696 560.15 59.6196C558.85 58.8696 557.45 58.4896 555.95 58.4896C554.45 58.4896 553.05 58.8596 551.75 59.5896C550.45 60.3296 549.4 61.3996 548.6 62.8196C547.8 64.2396 547.4 65.9196 547.4 67.8696C547.4 69.8196 547.8 71.5296 548.6 72.9996C549.4 74.4696 550.46 75.5896 551.78 76.3596C553.1 77.1296 554.49 77.5096 555.96 77.5096C557.46 77.5096 558.86 77.1296 560.16 76.3796C561.46 75.6296 562.51 74.5296 563.31 73.0696C564.11 71.6196 564.51 69.9196 564.51 67.9696C564.51 66.0196 564.1 64.3296 563.3 62.8996Z" fill="white"/>
<defs>
<linearGradient id="paint0_linear_36_58" x1="40.3833" y1="111.905" x2="56.1733" y2="18.5993" gradientUnits="userSpaceOnUse">
<stop stop-color="#0063F4"/>
<stop offset="1" stop-color="#05D2FD"/>
</linearGradient>
<linearGradient id="paint1_linear_36_58" x1="90.6895" y1="28.3235" x2="54.0193" y2="27.7571" gradientUnits="userSpaceOnUse">
<stop offset="0.0101" stop-color="#0A6592"/>
<stop offset="0.9899" stop-color="white" stop-opacity="0"/>
</linearGradient>
<linearGradient id="paint2_linear_36_58" x1="51.3911" y1="102.405" x2="9.82125" y2="102.405" gradientUnits="userSpaceOnUse">
<stop offset="0.1805" stop-color="#0A6592"/>
<stop offset="0.9899" stop-color="white" stop-opacity="0"/>
</linearGradient>
<linearGradient id="paint3_linear_36_58" x1="53.8054" y1="114.407" x2="70.2109" y2="21.1012" gradientUnits="userSpaceOnUse">
<stop stop-color="#0063F4"/>
<stop offset="1" stop-color="#05D2FD"/>
</linearGradient>
<linearGradient id="paint4_linear_36_58" x1="79.6084" y1="118.771" x2="95.8086" y2="25.2604" gradientUnits="userSpaceOnUse">
<stop stop-color="#0063F4"/>
<stop offset="1" stop-color="#05D2FD"/>
</linearGradient>
</defs>
</svg>
