<svg width="436" height="198" viewBox="0 0 436 198" fill="none" xmlns="http://www.w3.org/2000/svg">
<path d="M212.46 105.69H196.41V72.6801C196.41 68.2501 200 64.6602 204.43 64.6602H260.21V80.7102H212.45V105.69H212.46Z" fill="#0666F9"/>
<path d="M266.61 35.0902C265.61 32.2402 264.35 29.4603 262.86 26.7903C258.15 18.4403 251.37 11.8302 242.69 7.15024C234.19 2.57024 224.26 0.240234 213.18 0.240234H204.44C200.01 0.240234 196.42 3.83025 196.42 8.26025V16.2802V37.7402C196.42 42.1702 200.01 45.7603 204.44 45.7603H252.94C253.5 48.6203 253.79 51.6202 253.79 54.7702C253.79 60.2002 252.92 65.2702 251.2 69.8503C250.55 71.6003 249.76 73.3002 248.86 74.9302C245.6 80.7902 241.06 85.2902 234.98 88.6702C228.87 92.0802 221.54 93.8002 213.18 93.8002H182.22V16.0602H166.17V109.84H213.18C224.3 109.84 234.26 107.43 242.78 102.68C251.42 97.8702 258.18 91.1602 262.88 82.7202C264.17 80.4002 265.3 77.9502 266.23 75.4802C268.63 69.1102 269.84 62.1502 269.84 54.7702C269.83 47.7902 268.75 41.1602 266.61 35.0902ZM212.46 29.7303V16.2903H213.17C221.56 16.2903 228.93 17.9702 235.07 21.2702C239.26 23.5302 242.71 26.3203 245.5 29.7303H212.46Z" fill="url(#paint0_linear_40_3)"/>
<path d="M252.94 45.7803H204.44C200.01 45.7803 196.42 42.1903 196.42 37.7603V8.28027H212.47V29.7403H245.51C246.76 31.2603 247.88 32.9003 248.88 34.6703C249.91 36.5203 250.79 38.4503 251.49 40.4303V40.4403C252.08 42.1403 252.56 43.9203 252.94 45.7803Z" fill="url(#paint1_linear_40_3)"/>
<path d="M208.22 93.8101H182.22L166.17 109.86H208.22" fill="url(#paint2_linear_40_3)"/>
<path d="M212.46 109.86H196.41V72.6704C196.41 68.2404 200 64.6504 204.43 64.6504H254.83V80.7004H212.45V109.86H212.46Z" fill="url(#paint3_linear_40_3)"/>
<path d="M242.78 102.7C251.42 97.89 258.18 91.18 262.88 82.74C264.17 80.42 265.3 77.97 266.23 75.5C268.63 69.13 269.84 62.17 269.84 54.79H253.79C253.79 60.22 252.92 65.29 251.2 69.87C250.55 71.62 249.76 73.32 248.86 74.95C245.6 80.81 241.06 85.31 234.98 88.69L242.78 102.7Z" fill="url(#paint4_linear_40_3)"/>
<path d="M24.23 150.08C27.07 151.58 29.2599 153.69 30.8199 156.41C32.3699 159.13 33.15 162.26 33.15 165.82C33.15 169.34 32.3699 172.47 30.8199 175.2C29.2599 177.93 27.06 180.05 24.21 181.56C21.36 183.06 18.05 183.82 14.29 183.82H0.810059V147.83H14.29C18.08 147.82 21.39 148.57 24.23 150.08ZM21.46 173.5C23.31 171.69 24.23 169.13 24.23 165.81C24.23 162.5 23.31 159.91 21.46 158.07C19.61 156.23 17.03 155.3 13.72 155.3H9.56995V176.22H13.72C17.04 176.22 19.62 175.32 21.46 173.5Z" fill="#000034"/>
<path d="M66.42 155.2V183.8H57.65V179.9C56.76 181.16 55.56 182.18 54.04 182.95C52.52 183.72 50.84 184.1 48.99 184.1C46.8 184.1 44.87 183.61 43.2 182.64C41.53 181.67 40.23 180.26 39.3 178.41C38.38 176.57 37.92 174.4 37.92 171.9V155.2H46.63V170.73C46.63 172.65 47.13 174.13 48.12 175.19C49.11 176.25 50.44 176.78 52.12 176.78C53.83 176.78 55.18 176.25 56.17 175.19C57.16 174.13 57.66 172.65 57.66 170.73V155.2H66.42Z" fill="#000034"/>
<path d="M117.81 158.13C119.91 160.28 120.96 163.27 120.96 167.1V183.81H112.25V168.28C112.25 166.43 111.76 165.01 110.79 164C109.82 162.99 108.47 162.49 106.77 162.49C105.06 162.49 103.72 162.99 102.75 164C101.78 165.01 101.29 166.44 101.29 168.28V183.81H92.58V168.28C92.58 166.43 92.09 165.01 91.12 164C90.15 162.99 88.8 162.49 87.1 162.49C85.39 162.49 84.05 162.99 83.08 164C82.11 165.01 81.62 166.44 81.62 168.28V183.81H72.85V155.21H81.62V158.8C82.51 157.6 83.67 156.66 85.11 155.95C86.55 155.25 88.17 154.9 89.98 154.9C92.13 154.9 94.06 155.36 95.75 156.28C97.44 157.2 98.77 158.52 99.72 160.23C100.71 158.66 102.06 157.38 103.77 156.39C105.48 155.4 107.34 154.9 109.36 154.9C112.88 154.9 115.71 155.97 117.81 158.13Z" fill="#000034"/>
<path d="M172.2 158.13C174.3 160.28 175.35 163.27 175.35 167.1V183.81H166.64V168.28C166.64 166.43 166.15 165.01 165.18 164C164.21 162.99 162.86 162.49 161.16 162.49C159.45 162.49 158.11 162.99 157.14 164C156.17 165.01 155.68 166.44 155.68 168.28V183.81H146.97V168.28C146.97 166.43 146.48 165.01 145.51 164C144.54 162.99 143.19 162.49 141.49 162.49C139.78 162.49 138.44 162.99 137.47 164C136.5 165.01 136.01 166.44 136.01 168.28V183.81H127.24V155.21H136.01V158.8C136.9 157.6 138.06 156.66 139.5 155.95C140.94 155.25 142.56 154.9 144.37 154.9C146.52 154.9 148.45 155.36 150.14 156.28C151.83 157.2 153.16 158.52 154.11 160.23C155.1 158.66 156.45 157.38 158.16 156.39C159.87 155.4 161.73 154.9 163.75 154.9C167.27 154.9 170.1 155.97 172.2 158.13Z" fill="#000034"/>
<path d="M182.25 150.87C181.28 149.96 180.79 148.85 180.79 147.51C180.79 146.14 181.28 145.01 182.25 144.1C183.22 143.2 184.48 142.74 186.02 142.74C187.52 142.74 188.76 143.19 189.74 144.1C190.71 145.01 191.2 146.14 191.2 147.51C191.2 148.84 190.71 149.96 189.74 150.87C188.77 151.78 187.53 152.23 186.02 152.23C184.48 152.23 183.22 151.78 182.25 150.87ZM190.37 155.2V183.8H181.6V155.2H190.37Z" fill="#000034"/>
<path d="M223.64 171.61H203.8C203.94 173.39 204.51 174.75 205.52 175.69C206.53 176.63 207.77 177.1 209.24 177.1C211.43 177.1 212.95 176.18 213.8 174.33H223.13C222.65 176.21 221.79 177.9 220.54 179.41C219.29 180.91 217.73 182.09 215.85 182.95C213.97 183.81 211.87 184.23 209.55 184.23C206.75 184.23 204.25 183.63 202.07 182.44C199.88 181.24 198.17 179.54 196.94 177.31C195.71 175.09 195.09 172.49 195.09 169.52C195.09 166.55 195.7 163.95 196.91 161.73C198.12 159.51 199.82 157.8 202.01 156.6C204.2 155.4 206.71 154.81 209.55 154.81C212.32 154.81 214.78 155.39 216.93 156.55C219.08 157.71 220.77 159.37 221.98 161.52C223.19 163.67 223.8 166.18 223.8 169.06C223.79 169.86 223.74 170.72 223.64 171.61ZM214.82 166.74C214.82 165.24 214.31 164.04 213.28 163.15C212.25 162.26 210.97 161.82 209.44 161.82C207.97 161.82 206.73 162.25 205.72 163.1C204.71 163.95 204.09 165.17 203.85 166.74H214.82Z" fill="#000034"/>
<path d="M265.62 148.18V152.95H256.14V183.81H250.3V152.95H240.76V148.18H265.62Z" fill="#000034"/>
<path d="M280.87 156.31C282.29 155.51 283.97 155.11 285.92 155.11V161.16H284.43C282.14 161.16 280.41 161.74 279.23 162.9C278.05 164.06 277.46 166.08 277.46 168.95V183.82H271.62V155.57H277.46V159.67C278.32 158.23 279.45 157.11 280.87 156.31Z" fill="#000034"/>
<path d="M291.23 162.02C292.41 159.83 294.02 158.13 296.05 156.92C298.08 155.71 300.33 155.1 302.79 155.1C305.01 155.1 306.95 155.54 308.61 156.41C310.27 157.28 311.59 158.37 312.58 159.67V155.57H318.47V183.82H312.58V179.62C311.59 180.95 310.24 182.06 308.53 182.95C306.82 183.84 304.87 184.28 302.69 184.28C300.26 184.28 298.04 183.66 296.03 182.41C294.01 181.16 292.42 179.42 291.24 177.18C290.06 174.94 289.47 172.4 289.47 169.57C289.46 166.72 290.05 164.21 291.23 162.02ZM311.37 164.58C310.57 163.14 309.52 162.05 308.22 161.3C306.92 160.55 305.52 160.17 304.02 160.17C302.52 160.17 301.11 160.54 299.82 161.27C298.52 162.01 297.47 163.08 296.67 164.5C295.87 165.92 295.47 167.6 295.47 169.55C295.47 171.5 295.87 173.21 296.67 174.68C297.47 176.15 298.53 177.27 299.85 178.04C301.17 178.81 302.56 179.19 304.03 179.19C305.53 179.19 306.93 178.81 308.23 178.06C309.53 177.31 310.58 176.21 311.38 174.75C312.18 173.3 312.59 171.6 312.59 169.65C312.59 167.7 312.18 166.02 311.37 164.58Z" fill="#000034"/>
<path d="M326.09 162.02C327.27 159.83 328.88 158.13 330.91 156.92C332.94 155.71 335.21 155.1 337.7 155.1C339.55 155.1 341.37 155.5 343.16 156.3C344.95 157.1 346.38 158.17 347.44 159.5V145.86H353.33V183.79H347.44V179.54C346.48 180.91 345.16 182.04 343.47 182.92C341.78 183.81 339.84 184.25 337.65 184.25C335.19 184.25 332.94 183.63 330.91 182.38C328.88 181.13 327.27 179.39 326.09 177.15C324.91 174.91 324.32 172.37 324.32 169.54C324.32 166.72 324.91 164.21 326.09 162.02ZM346.23 164.58C345.43 163.14 344.38 162.05 343.08 161.3C341.78 160.55 340.38 160.17 338.88 160.17C337.38 160.17 335.97 160.54 334.68 161.27C333.38 162.01 332.33 163.08 331.53 164.5C330.73 165.92 330.33 167.6 330.33 169.55C330.33 171.5 330.73 173.21 331.53 174.68C332.33 176.15 333.39 177.27 334.71 178.04C336.03 178.81 337.42 179.19 338.89 179.19C340.39 179.19 341.79 178.81 343.09 178.06C344.39 177.31 345.44 176.21 346.24 174.75C347.04 173.3 347.45 171.6 347.45 169.65C347.45 167.7 347.04 166.02 346.23 164.58Z" fill="#000034"/>
<path d="M361.43 150.74C360.71 150.02 360.35 149.13 360.35 148.07C360.35 147.01 360.71 146.12 361.43 145.4C362.15 144.68 363.04 144.32 364.1 144.32C365.12 144.32 366 144.68 366.71 145.4C367.43 146.12 367.79 147.01 367.79 148.07C367.79 149.13 367.43 150.02 366.71 150.74C365.99 151.46 365.12 151.82 364.1 151.82C363.04 151.82 362.15 151.46 361.43 150.74ZM366.97 155.56V183.81H361.13V155.56H366.97Z" fill="#000034"/>
<path d="M394.98 156.49C396.74 157.41 398.12 158.78 399.11 160.59C400.1 162.4 400.6 164.59 400.6 167.15V183.81H394.81V168.02C394.81 165.49 394.18 163.55 392.91 162.2C391.65 160.85 389.92 160.18 387.73 160.18C385.54 160.18 383.81 160.85 382.53 162.2C381.25 163.55 380.61 165.49 380.61 168.02V183.81H374.77V155.56H380.61V158.79C381.57 157.63 382.79 156.72 384.28 156.07C385.77 155.42 387.35 155.1 389.02 155.1C391.23 155.1 393.22 155.56 394.98 156.49Z" fill="#000034"/>
<path d="M425.33 156.41C427.02 157.28 428.35 158.37 429.3 159.67V155.57H435.19V184.28C435.19 186.88 434.64 189.19 433.55 191.23C432.46 193.27 430.88 194.86 428.81 196.02C426.74 197.18 424.27 197.76 421.4 197.76C417.57 197.76 414.39 196.86 411.86 195.07C409.33 193.28 407.9 190.84 407.55 187.77H413.34C413.78 189.24 414.73 190.43 416.19 191.33C417.64 192.24 419.38 192.69 421.39 192.69C423.75 192.69 425.65 191.97 427.11 190.54C428.56 189.1 429.29 187.02 429.29 184.29V179.57C428.3 180.9 426.96 182.02 425.27 182.93C423.58 183.84 421.66 184.29 419.5 184.29C417.04 184.29 414.79 183.67 412.76 182.42C410.73 181.17 409.12 179.43 407.94 177.19C406.76 174.95 406.17 172.41 406.17 169.58C406.17 166.74 406.76 164.23 407.94 162.04C409.12 159.85 410.73 158.15 412.76 156.94C414.79 155.73 417.04 155.12 419.5 155.12C421.7 155.1 423.64 155.54 425.33 156.41ZM428.1 164.58C427.3 163.14 426.25 162.05 424.95 161.3C423.65 160.55 422.25 160.17 420.75 160.17C419.25 160.17 417.84 160.54 416.55 161.27C415.25 162.01 414.2 163.08 413.4 164.5C412.6 165.92 412.2 167.6 412.2 169.55C412.2 171.5 412.6 173.21 413.4 174.68C414.2 176.15 415.26 177.27 416.58 178.04C417.9 178.81 419.29 179.19 420.76 179.19C422.26 179.19 423.66 178.81 424.96 178.06C426.26 177.31 427.31 176.21 428.11 174.75C428.91 173.3 429.32 171.6 429.32 169.65C429.32 167.7 428.9 166.02 428.1 164.58Z" fill="#000034"/>
<defs>
<linearGradient id="paint0_linear_40_3" x1="205.612" y1="111.34" x2="221.402" y2="18.0344" gradientUnits="userSpaceOnUse">
<stop stop-color="#0063F4"/>
<stop offset="1" stop-color="#05D2FD"/>
</linearGradient>
<linearGradient id="paint1_linear_40_3" x1="255.915" y1="27.7638" x2="219.245" y2="27.1974" gradientUnits="userSpaceOnUse">
<stop offset="0.0101" stop-color="#0A6592"/>
<stop offset="0.9899" stop-color="white" stop-opacity="0"/>
</linearGradient>
<linearGradient id="paint2_linear_40_3" x1="216.617" y1="101.835" x2="175.047" y2="101.835" gradientUnits="userSpaceOnUse">
<stop offset="0.1805" stop-color="#0A6592"/>
<stop offset="0.9899" stop-color="white" stop-opacity="0"/>
</linearGradient>
<linearGradient id="paint3_linear_40_3" x1="219.026" y1="113.837" x2="235.431" y2="20.5312" gradientUnits="userSpaceOnUse">
<stop stop-color="#0063F4"/>
<stop offset="1" stop-color="#05D2FD"/>
</linearGradient>
<linearGradient id="paint4_linear_40_3" x1="244.837" y1="118.206" x2="261.038" y2="24.6955" gradientUnits="userSpaceOnUse">
<stop stop-color="#0063F4"/>
<stop offset="1" stop-color="#05D2FD"/>
</linearGradient>
</defs>
</svg>
