<svg width="208" height="220" viewBox="0 0 208 220" fill="none" xmlns="http://www.w3.org/2000/svg">
<path d="M92.9302 211.27H60.8398V145.24C60.8398 136.38 68.0301 129.19 76.8901 129.19H188.46V161.28H92.9399L92.9302 211.27Z" fill="#0666F9"/>
<path d="M201.22 70.0801C199.23 64.3801 196.69 58.8201 193.71 53.4901C184.29 36.7901 170.73 23.5601 153.37 14.2101C136.36 5.05011 116.51 0.390137 94.3501 0.390137H76.8701C68.0101 0.390137 60.8198 7.57012 60.8198 16.4401V32.4901V75.4101C60.8198 84.2701 68.0001 91.4601 76.8701 91.4601H173.87C174.99 97.1701 175.57 103.19 175.57 109.48C175.57 120.34 173.84 130.48 170.39 139.63C169.09 143.13 167.52 146.53 165.7 149.79C159.18 161.52 150.1 170.51 137.94 177.26C125.73 184.08 111.06 187.53 94.3398 187.53H32.4199V32.0401H0.330078V219.61H94.3501C116.59 219.61 136.52 214.8 153.56 205.3C170.84 195.69 184.37 182.26 193.76 165.38C196.34 160.74 198.61 155.85 200.45 150.89C205.25 138.15 207.67 124.22 207.67 109.47C207.67 95.4601 205.5 82.2101 201.22 70.0801ZM92.9199 59.3601V32.4801H94.3501C111.13 32.4801 125.86 35.8301 138.14 42.4401C146.52 46.9701 153.41 52.5501 159 59.3501H92.9199V59.3601Z" fill="url(#paint0_linear_36_126)"/>
<path d="M173.87 91.4502H76.8701C68.0101 91.4502 60.8198 84.2602 60.8198 75.4002V16.4302H92.9102V59.3502H159C161.5 62.3802 163.73 65.6702 165.74 69.2002C167.81 72.8902 169.56 76.7602 170.95 80.7202V80.7402C172.16 84.1702 173.12 87.7302 173.87 91.4502Z" fill="url(#paint1_linear_36_126)"/>
<path d="M84.4302 187.52H32.4199L0.330078 219.61H84.4302" fill="url(#paint2_linear_36_126)"/>
<path d="M92.9302 219.61H60.8398V145.24C60.8398 136.38 68.0301 129.19 76.8901 129.19H177.7V161.28H92.9399V219.61H92.9302Z" fill="url(#paint3_linear_36_126)"/>
<path d="M153.56 205.3C170.84 195.69 184.37 182.26 193.76 165.38C196.34 160.74 198.61 155.85 200.45 150.89C205.25 138.15 207.67 124.22 207.67 109.47H175.58C175.58 120.33 173.85 130.47 170.4 139.62C169.1 143.12 167.53 146.52 165.71 149.78C159.19 161.51 150.11 170.5 137.95 177.25L153.56 205.3Z" fill="url(#paint4_linear_36_126)"/>
<defs>
<linearGradient id="paint0_linear_36_126" x1="79.2212" y1="222.571" x2="110.801" y2="35.9601" gradientUnits="userSpaceOnUse">
<stop stop-color="#0063F4"/>
<stop offset="1" stop-color="#05D2FD"/>
</linearGradient>
<linearGradient id="paint1_linear_36_126" x1="179.831" y1="55.4074" x2="106.491" y2="54.2748" gradientUnits="userSpaceOnUse">
<stop offset="0.0101" stop-color="#0A6592"/>
<stop offset="0.9899" stop-color="white" stop-opacity="0"/>
</linearGradient>
<linearGradient id="paint2_linear_36_126" x1="101.235" y1="203.565" x2="18.0948" y2="203.565" gradientUnits="userSpaceOnUse">
<stop offset="0.1805" stop-color="#0A6592"/>
<stop offset="0.9899" stop-color="white" stop-opacity="0"/>
</linearGradient>
<linearGradient id="paint3_linear_36_126" x1="106.081" y1="227.564" x2="138.892" y2="40.9535" gradientUnits="userSpaceOnUse">
<stop stop-color="#0063F4"/>
<stop offset="1" stop-color="#05D2FD"/>
</linearGradient>
<linearGradient id="paint4_linear_36_126" x1="157.663" y1="236.302" x2="190.064" y2="49.2813" gradientUnits="userSpaceOnUse">
<stop stop-color="#0063F4"/>
<stop offset="1" stop-color="#05D2FD"/>
</linearGradient>
</defs>
</svg>
