<svg width="77" height="68" viewBox="0 0 77 68" fill="none" xmlns="http://www.w3.org/2000/svg">
<path fill-rule="evenodd" clip-rule="evenodd" d="M8.21646 15.9528C17.5616 6.4602 22.6023 2.85904 28.9248 1.15659C38.0155 -1.29051 48.8152 0.220381 56.2504 4.9803C61.5793 8.39083 77 24.6716 77 26.8868C77 30.7396 75.1304 33.7398 71.8861 35.0957C67.2069 37.0508 64.7316 35.7775 55.3264 26.5788C46.755 18.1952 44.2741 16.7453 38.5 16.7453C32.7184 16.7453 30.0629 18.2487 22.0671 26.052C10.3311 37.5034 8.11035 38.4274 2.88938 34.0337C0.574683 32.0862 0 30.8758 0 27.9507C0 24.6219 0.725866 23.5608 8.21646 15.9528ZM22.7713 32.0073C27.0326 27.6164 31.786 23.4594 33.3354 22.7692C39.9067 19.8413 44.3539 21.8001 53.9526 31.8467C59.953 38.1279 61.0366 39.7542 61.0366 42.4812C61.0366 46.9969 60.2647 48.5369 57.2129 50.1154C52.8032 52.3963 50.9515 51.7606 44.4853 45.7452L43.247 44.5932C40.4817 42.0205 36.1851 42.0671 33.4762 44.6992C25.564 52.3841 22.2605 53.2349 17.7692 48.7445C12.9811 43.9564 13.7839 41.2698 22.7713 32.0073ZM38.5 67.4527C43.6861 67.4527 47.8902 63.2485 47.8902 58.0624C47.8902 52.8763 41.3171 46.3246 38.5 46.3246C35.6829 46.3246 29.1098 52.8763 29.1098 58.0624C29.1098 63.2485 33.3139 67.4527 38.5 67.4527Z" fill="url(#paint0_linear_14_55)"/>
<defs>
<linearGradient id="paint0_linear_14_55" x1="38.5" y1="0" x2="38.5" y2="67.4527" gradientUnits="userSpaceOnUse">
<stop stop-color="#8F00FF"/>
<stop offset="1" stop-color="#0075FF"/>
</linearGradient>
</defs>
</svg>
