<svg width="187" height="125" viewBox="0 0 187 125" fill="none" xmlns="http://www.w3.org/2000/svg">
<path d="M148.294 38.5747L148.357 38.6425L148.425 38.7055C150.029 40.1946 150.791 41.9435 150.791 44.1073V102.768C150.791 112.077 158.337 119.623 167.646 119.623C176.954 119.623 184.5 112.077 184.5 102.768V44.1073C184.5 32.737 180.389 22.9149 172.248 14.7704C164.24 6.60603 154.405 2.5 142.893 2.5C131.518 2.5 121.693 6.61464 113.546 14.761C105.4 22.9073 101.285 32.7327 101.285 44.1073V80.728C101.285 82.9531 100.552 84.7209 99.079 86.1939C97.6059 87.667 95.8381 88.4004 93.613 88.4004C91.4 88.4004 89.5306 87.6722 87.8886 86.1613C86.4372 84.6948 85.7146 82.9367 85.7146 80.728V44.1073C85.7146 32.7327 81.5999 22.9073 73.4536 14.761C65.2998 6.60722 55.3961 2.5 43.8812 2.5C32.5066 2.5 22.6812 6.61464 14.5349 14.761L14.5262 14.7697L14.5175 14.7786C6.52725 22.9286 2.5 32.7486 2.5 44.1073V102.768C2.5 112.077 10.046 119.623 19.3544 119.623C28.6628 119.623 36.2088 112.077 36.2088 102.768V44.1073C36.2088 41.8822 36.9422 40.1144 38.4153 38.6413C40.0783 36.9783 41.9374 36.2088 44.1073 36.2088C46.2711 36.2088 48.0199 36.9711 49.509 38.5747L49.572 38.6425L49.6399 38.7055C51.2435 40.1946 52.0058 41.9435 52.0058 44.1073V80.728C52.0058 92.0867 56.033 101.907 64.0233 110.057L64.0319 110.066L64.0407 110.074C72.187 118.221 82.0124 122.335 93.387 122.335C104.899 122.335 114.734 118.229 122.742 110.066C130.883 101.921 134.994 92.0986 134.994 80.728V44.1073C134.994 41.8822 135.728 40.1144 137.201 38.6413C138.864 36.9783 140.723 36.2088 142.893 36.2088C145.057 36.2088 146.805 36.9711 148.294 38.5747Z" fill="url(#paint0_linear_20_52)" stroke="white" stroke-width="5"/>
<mask id="path-2-outside-1_20_52" maskUnits="userSpaceOnUse" x="0" y="0" width="100" height="123" fill="black">
<rect fill="white" width="100" height="123"/>
<path fill-rule="evenodd" clip-rule="evenodd" d="M93.5593 95.7061C92.2969 92.3135 88.8059 90.4249 86.1533 87.9617C84.1941 86.0026 83.2146 83.5913 83.2146 80.728V44.1073C83.2146 33.4074 79.3717 24.2146 71.6858 16.5287C64 8.84291 54.7318 5 43.8812 5C33.1814 5 23.9885 8.84291 16.3027 16.5287C8.76756 24.2146 5 33.4074 5 44.1073V102.768C5 110.696 11.4267 117.123 19.3544 117.123C27.2821 117.123 33.7088 110.696 33.7088 102.768V44.1073C33.7088 41.2439 34.6884 38.8327 36.6475 36.8736C38.7573 34.7637 41.2439 33.7088 44.1073 33.7088C46.9706 33.7088 49.3819 34.7637 51.341 36.8736C53.4508 38.8327 54.5058 41.2439 54.5058 44.1073V80.728C54.5058 91.4278 58.2733 100.621 65.8084 108.307C67.862 110.36 70.0231 112.139 72.2918 113.644C80.9758 119.404 93.9221 114.508 94.8656 104.13C95.1271 101.254 94.5506 98.3699 93.5593 95.7061Z"/>
</mask>
<path fill-rule="evenodd" clip-rule="evenodd" d="M93.5593 95.7061C92.2969 92.3135 88.8059 90.4249 86.1533 87.9617C84.1941 86.0026 83.2146 83.5913 83.2146 80.728V44.1073C83.2146 33.4074 79.3717 24.2146 71.6858 16.5287C64 8.84291 54.7318 5 43.8812 5C33.1814 5 23.9885 8.84291 16.3027 16.5287C8.76756 24.2146 5 33.4074 5 44.1073V102.768C5 110.696 11.4267 117.123 19.3544 117.123C27.2821 117.123 33.7088 110.696 33.7088 102.768V44.1073C33.7088 41.2439 34.6884 38.8327 36.6475 36.8736C38.7573 34.7637 41.2439 33.7088 44.1073 33.7088C46.9706 33.7088 49.3819 34.7637 51.341 36.8736C53.4508 38.8327 54.5058 41.2439 54.5058 44.1073V80.728C54.5058 91.4278 58.2733 100.621 65.8084 108.307C67.862 110.36 70.0231 112.139 72.2918 113.644C80.9758 119.404 93.9221 114.508 94.8656 104.13C95.1271 101.254 94.5506 98.3699 93.5593 95.7061Z" fill="url(#paint1_linear_20_52)"/>
<path d="M71.6858 16.5287L75.2214 12.9932L75.2214 12.9932L71.6858 16.5287ZM16.3027 16.5287L12.7671 12.9932L12.7496 13.0107L12.7323 13.0284L16.3027 16.5287ZM36.6475 36.8736L40.183 40.4091L36.6475 36.8736ZM51.341 36.8736L47.677 40.2758L47.803 40.4115L47.9387 40.5375L51.341 36.8736ZM65.8084 108.307L62.2381 111.807L62.2554 111.825L62.2729 111.842L65.8084 108.307ZM72.2918 113.644L69.528 117.811L72.2918 113.644ZM94.8656 104.13L99.8451 104.583L94.8656 104.13ZM86.1533 87.9617L82.6177 91.4972L82.6832 91.5627L82.751 91.6257L86.1533 87.9617ZM93.5593 95.7061L98.2454 93.9622L93.5593 95.7061ZM78.2146 80.728C78.2146 84.8678 79.6864 88.5659 82.6177 91.4972L89.6888 84.4261C88.7018 83.4392 88.2146 82.3148 88.2146 80.728H78.2146ZM78.2146 44.1073V80.728H88.2146V44.1073H78.2146ZM68.1503 20.0643C74.9151 26.8291 78.2146 34.7569 78.2146 44.1073H88.2146C88.2146 32.0579 83.8282 21.6 75.2214 12.9932L68.1503 20.0643ZM43.8812 10C53.4031 10 61.4003 13.3143 68.1503 20.0643L75.2214 12.9932C66.5997 4.37153 56.0605 0 43.8812 0V10ZM19.8382 20.0643C26.603 13.2995 34.5308 10 43.8812 10V0C31.8319 0 21.374 4.38637 12.7671 12.9932L19.8382 20.0643ZM10 44.1073C10 34.725 13.2482 26.7865 19.873 20.0291L12.7323 13.0284C4.28695 21.6427 0 32.0898 0 44.1073H10ZM10 102.768V44.1073H0V102.768H10ZM19.3544 112.123C14.1881 112.123 10 107.934 10 102.768H0C0 113.457 8.66526 122.123 19.3544 122.123V112.123ZM28.7088 102.768C28.7088 107.935 24.5207 112.123 19.3544 112.123V122.123C30.0435 122.123 38.7088 113.457 38.7088 102.768H28.7088ZM28.7088 44.1073V102.768H38.7088V44.1073H28.7088ZM33.112 33.338C30.1807 36.2693 28.7088 39.9674 28.7088 44.1073H38.7088C38.7088 42.5204 39.1961 41.3961 40.183 40.4091L33.112 33.338ZM44.1073 28.7088C39.8569 28.7088 36.1155 30.3345 33.112 33.338L40.183 40.4091C41.3992 39.193 42.6309 38.7088 44.1073 38.7088V28.7088ZM55.005 33.4713C52.1057 30.349 48.3697 28.7088 44.1073 28.7088V38.7088C45.5716 38.7088 46.658 39.1784 47.677 40.2758L55.005 33.4713ZM59.5058 44.1073C59.5058 39.8449 57.8655 36.1088 54.7433 33.2096L47.9387 40.5375C49.0362 41.5566 49.5058 42.643 49.5058 44.1073H59.5058ZM59.5058 80.728V44.1073H49.5058V80.728H59.5058ZM69.3788 104.806C62.7539 98.0488 59.5058 90.1102 59.5058 80.728H49.5058C49.5058 92.7455 53.7927 103.193 62.2381 111.807L69.3788 104.806ZM75.0556 109.477C73.0823 108.169 71.1775 106.605 69.344 104.771L62.2729 111.842C64.5464 114.116 66.9639 116.11 69.528 117.811L75.0556 109.477ZM99.8451 104.583C100.193 100.758 99.4154 97.1063 98.2454 93.9622L88.8733 97.4499C89.6859 99.6335 90.0614 101.75 89.8861 103.677L99.8451 104.583ZM69.528 117.811C75.3884 121.698 82.5567 121.927 88.3611 119.572C94.2123 117.198 99.1745 111.959 99.8451 104.583L89.8861 103.677C89.6132 106.679 87.6305 109.077 84.6017 110.306C81.5261 111.553 77.8793 111.35 75.0556 109.477L69.528 117.811ZM82.751 91.6257C83.5637 92.3803 84.4102 93.063 85.1271 93.637C85.8885 94.2465 86.4984 94.7297 87.066 95.2315C88.1982 96.2323 88.6663 96.8937 88.8733 97.4499L98.2454 93.9622C97.1899 91.1258 95.2812 89.1466 93.6892 87.7392C92.8947 87.0368 92.0556 86.374 91.3769 85.8306C90.6538 85.2517 90.0692 84.7747 89.5555 84.2977L82.751 91.6257Z" fill="white" mask="url(#path-2-outside-1_20_52)"/>
<defs>
<linearGradient id="paint0_linear_20_52" x1="182.878" y1="5" x2="104.13" y2="100.424" gradientUnits="userSpaceOnUse">
<stop stop-color="#0B6EFF"/>
<stop offset="0.9999" stop-color="#5C228E"/>
<stop offset="1" stop-color="#5A1794"/>
</linearGradient>
<linearGradient id="paint1_linear_20_52" x1="49.9642" y1="5" x2="49.9642" y2="117.123" gradientUnits="userSpaceOnUse">
<stop stop-color="#8D02FF"/>
<stop offset="1" stop-color="#0473FF"/>
</linearGradient>
</defs>
</svg>
