<svg width="240" height="47" viewBox="0 0 240 47" fill="none" xmlns="http://www.w3.org/2000/svg">
<path d="M39.796 17.604L37.502 28.33H45.686V34.53H36.2L33.72 46H26.962L29.442 34.53H17.29L14.81 46H8.052L10.532 34.53H0.922V28.33H11.834L14.128 17.604H4.58V11.404H15.43L17.848 0.119999H24.606L22.188 11.404H34.34L36.758 0.119999H43.516L41.098 11.404H49.344V17.604H39.796ZM33.038 17.604H20.886L18.592 28.33H30.744L33.038 17.604ZM80.8918 40.296H95.4618V46H73.8238V2.91H80.8918V40.296ZM121.027 46.434C117.017 46.434 113.318 45.504 109.929 43.644C106.581 41.7427 103.915 39.118 101.931 35.77C99.988 32.3807 99.0167 28.578 99.0167 24.362C99.0167 20.146 99.988 16.364 101.931 13.016C103.915 9.668 106.581 7.064 109.929 5.204C113.318 3.30266 117.017 2.352 121.027 2.352C125.077 2.352 128.777 3.30266 132.125 5.204C135.514 7.064 138.18 9.668 140.123 13.016C142.065 16.364 143.037 20.146 143.037 24.362C143.037 28.578 142.065 32.3807 140.123 35.77C138.18 39.118 135.514 41.7427 132.125 43.644C128.777 45.504 125.077 46.434 121.027 46.434ZM121.027 40.296C123.879 40.296 126.421 39.6553 128.653 38.374C130.885 37.0513 132.621 35.1913 133.861 32.794C135.142 30.3553 135.783 27.5447 135.783 24.362C135.783 21.1793 135.142 18.3893 133.861 15.992C132.621 13.5947 130.885 11.7553 128.653 10.474C126.421 9.19267 123.879 8.552 121.027 8.552C118.175 8.552 115.633 9.19267 113.401 10.474C111.169 11.7553 109.412 13.5947 108.131 15.992C106.891 18.3893 106.271 21.1793 106.271 24.362C106.271 27.5447 106.891 30.3553 108.131 32.794C109.412 35.1913 111.169 37.0513 113.401 38.374C115.633 39.6553 118.175 40.296 121.027 40.296ZM181.178 15.31C180.062 13.1607 178.512 11.5487 176.528 10.474C174.544 9.358 172.25 8.8 169.646 8.8C166.794 8.8 164.252 9.44067 162.02 10.722C159.788 12.0033 158.031 13.822 156.75 16.178C155.51 18.534 154.89 21.262 154.89 24.362C154.89 27.462 155.51 30.2107 156.75 32.608C158.031 34.964 159.788 36.7827 162.02 38.064C164.252 39.3453 166.794 39.986 169.646 39.986C173.49 39.986 176.61 38.9113 179.008 36.762C181.405 34.6127 182.872 31.6987 183.41 28.02H167.228V22.378H190.974V27.896C190.519 31.244 189.32 34.3233 187.378 37.134C185.476 39.9447 182.976 42.1973 179.876 43.892C176.817 45.5453 173.407 46.372 169.646 46.372C165.595 46.372 161.896 45.442 158.548 43.582C155.2 41.6807 152.534 39.056 150.55 35.708C148.607 32.36 147.636 28.578 147.636 24.362C147.636 20.146 148.607 16.364 150.55 13.016C152.534 9.668 155.2 7.064 158.548 5.204C161.937 3.30266 165.636 2.352 169.646 2.352C174.234 2.352 178.305 3.48866 181.86 5.762C185.456 7.994 188.06 11.1767 189.672 15.31H181.178ZM217.599 46.434C213.59 46.434 209.89 45.504 206.501 43.644C203.153 41.7427 200.487 39.118 198.503 35.77C196.56 32.3807 195.589 28.578 195.589 24.362C195.589 20.146 196.56 16.364 198.503 13.016C200.487 9.668 203.153 7.064 206.501 5.204C209.89 3.30266 213.59 2.352 217.599 2.352C221.65 2.352 225.349 3.30266 228.697 5.204C232.086 7.064 234.752 9.668 236.695 13.016C238.638 16.364 239.609 20.146 239.609 24.362C239.609 28.578 238.638 32.3807 236.695 35.77C234.752 39.118 232.086 41.7427 228.697 43.644C225.349 45.504 221.65 46.434 217.599 46.434ZM217.599 40.296C220.451 40.296 222.993 39.6553 225.225 38.374C227.457 37.0513 229.193 35.1913 230.433 32.794C231.714 30.3553 232.355 27.5447 232.355 24.362C232.355 21.1793 231.714 18.3893 230.433 15.992C229.193 13.5947 227.457 11.7553 225.225 10.474C222.993 9.19267 220.451 8.552 217.599 8.552C214.747 8.552 212.205 9.19267 209.973 10.474C207.741 11.7553 205.984 13.5947 204.703 15.992C203.463 18.3893 202.843 21.1793 202.843 24.362C202.843 27.5447 203.463 30.3553 204.703 32.794C205.984 35.1913 207.741 37.0513 209.973 38.374C212.205 39.6553 214.747 40.296 217.599 40.296Z" fill="white"/>
</svg>
