<svg width="425" height="70" viewBox="0 0 425 70" fill="none" xmlns="http://www.w3.org/2000/svg">
<path d="M87.6548 32.4219H79.5668C79.419 31.3755 79.1174 30.446 78.6619 29.6335C78.2064 28.8087 77.6217 28.107 76.9077 27.5284C76.1937 26.9498 75.3688 26.5066 74.4332 26.1989C73.5099 25.8911 72.5066 25.7372 71.4233 25.7372C69.4659 25.7372 67.7609 26.2235 66.3082 27.196C64.8556 28.1562 63.7292 29.5597 62.929 31.4062C62.1288 33.2405 61.7287 35.4687 61.7287 38.0909C61.7287 40.7869 62.1288 43.0521 62.929 44.8864C63.7415 46.7206 64.8741 48.1056 66.3267 49.0412C67.7794 49.9768 69.4598 50.4446 71.3679 50.4446C72.4389 50.4446 73.4299 50.303 74.3409 50.0199C75.2642 49.7367 76.0829 49.3243 76.7969 48.7827C77.5109 48.2287 78.1018 47.5578 78.5696 46.7699C79.0497 45.982 79.3821 45.0833 79.5668 44.0739L87.6548 44.1108C87.4456 45.8466 86.9224 47.5208 86.0852 49.1335C85.2604 50.7339 84.1463 52.1681 82.7429 53.4361C81.3518 54.6918 79.6899 55.6889 77.7571 56.4276C75.8366 57.1539 73.6638 57.517 71.2386 57.517C67.8655 57.517 64.8494 56.7538 62.1903 55.2273C59.5436 53.7008 57.4508 51.491 55.9119 48.598C54.3854 45.705 53.6222 42.2027 53.6222 38.0909C53.6222 33.9669 54.3977 30.4583 55.9489 27.5653C57.5 24.6723 59.6051 22.4687 62.2642 20.9545C64.9233 19.428 67.9148 18.6648 71.2386 18.6648C73.4299 18.6648 75.4612 18.9725 77.3324 19.5881C79.2159 20.2036 80.884 21.1023 82.3366 22.2841C83.7893 23.4536 84.9711 24.8878 85.8821 26.5866C86.8054 28.2855 87.3963 30.2306 87.6548 32.4219ZM101.329 57.5355C99.5192 57.5355 97.9065 57.2216 96.4908 56.5938C95.075 55.9536 93.9548 55.0118 93.13 53.7685C92.3175 52.5128 91.9112 50.9493 91.9112 49.0781C91.9112 47.5024 92.2005 46.179 92.7791 45.108C93.3577 44.0369 94.1456 43.1752 95.1428 42.5227C96.1399 41.8703 97.2725 41.3778 98.5405 41.0455C99.8208 40.7131 101.163 40.4792 102.566 40.3438C104.216 40.1714 105.545 40.0114 106.555 39.8636C107.564 39.7036 108.297 39.4697 108.752 39.1619C109.208 38.8542 109.435 38.3987 109.435 37.7955V37.6847C109.435 36.5152 109.066 35.6103 108.327 34.9702C107.601 34.33 106.567 34.0099 105.225 34.0099C103.809 34.0099 102.683 34.3239 101.846 34.9517C101.009 35.5672 100.455 36.3428 100.184 37.2784L92.9084 36.6875C93.2777 34.964 94.004 33.4744 95.0874 32.2188C96.1707 30.9508 97.5679 29.9782 99.2791 29.3011C101.003 28.6117 102.997 28.267 105.262 28.267C106.838 28.267 108.346 28.4517 109.786 28.821C111.239 29.1903 112.525 29.7628 113.646 30.5384C114.778 31.3139 115.671 32.3111 116.323 33.5298C116.976 34.7363 117.302 36.1828 117.302 37.8693V57H109.842V53.0668H109.62C109.165 53.9531 108.555 54.7348 107.792 55.4119C107.029 56.0767 106.112 56.5999 105.04 56.9815C103.969 57.3509 102.732 57.5355 101.329 57.5355ZM103.582 52.1065C104.739 52.1065 105.761 51.8788 106.647 51.4233C107.533 50.9555 108.229 50.3277 108.734 49.5398C109.238 48.7519 109.491 47.8594 109.491 46.8622V43.8523C109.245 44.0123 108.906 44.16 108.475 44.2955C108.057 44.4186 107.583 44.5355 107.053 44.6463C106.524 44.7448 105.995 44.8371 105.465 44.9233C104.936 44.9972 104.456 45.0649 104.025 45.1264C103.102 45.2618 102.295 45.4773 101.606 45.7727C100.916 46.0682 100.381 46.4683 99.9993 46.973C99.6177 47.4654 99.4268 48.081 99.4268 48.8196C99.4268 49.8906 99.8146 50.7093 100.59 51.2756C101.378 51.8295 102.375 52.1065 103.582 52.1065ZM123.405 67.6364V28.6364H131.161V33.4006H131.511C131.856 32.6373 132.355 31.8617 133.007 31.0739C133.672 30.2737 134.534 29.6089 135.592 29.0795C136.663 28.5379 137.993 28.267 139.581 28.267C141.649 28.267 143.557 28.8087 145.305 29.892C147.054 30.9631 148.451 32.5819 149.497 34.7486C150.544 36.9029 151.067 39.6051 151.067 42.8551C151.067 46.0189 150.556 48.6903 149.534 50.8693C148.525 53.036 147.146 54.6795 145.398 55.7997C143.662 56.9077 141.717 57.4616 139.562 57.4616C138.036 57.4616 136.737 57.2093 135.666 56.7045C134.607 56.1998 133.74 55.5658 133.062 54.8026C132.385 54.027 131.868 53.2453 131.511 52.4574H131.271V67.6364H123.405ZM131.105 42.8182C131.105 44.5047 131.339 45.9759 131.807 47.2315C132.275 48.4872 132.952 49.4659 133.838 50.1676C134.724 50.857 135.802 51.2017 137.07 51.2017C138.35 51.2017 139.433 50.8509 140.32 50.1491C141.206 49.4351 141.877 48.4503 142.332 47.1946C142.8 45.9266 143.034 44.4678 143.034 42.8182C143.034 41.1809 142.806 39.7405 142.351 38.4972C141.895 37.2538 141.224 36.2812 140.338 35.5795C139.452 34.8778 138.362 34.527 137.07 34.527C135.789 34.527 134.706 34.8655 133.82 35.5426C132.946 36.2197 132.275 37.1799 131.807 38.4233C131.339 39.6667 131.105 41.1316 131.105 42.8182ZM156.311 57V28.6364H164.178V57H156.311ZM160.263 24.9801C159.093 24.9801 158.09 24.5923 157.253 23.8168C156.428 23.0289 156.016 22.0871 156.016 20.9915C156.016 19.9081 156.428 18.9787 157.253 18.2031C158.09 17.4152 159.093 17.0213 160.263 17.0213C161.432 17.0213 162.429 17.4152 163.254 18.2031C164.091 18.9787 164.51 19.9081 164.51 20.9915C164.51 22.0871 164.091 23.0289 163.254 23.8168C162.429 24.5923 161.432 24.9801 160.263 24.9801ZM185.566 28.6364V34.5455H168.485V28.6364H185.566ZM172.363 21.8409H180.229V48.2841C180.229 49.0104 180.34 49.5767 180.561 49.983C180.783 50.3769 181.091 50.6539 181.485 50.8139C181.891 50.974 182.359 51.054 182.888 51.054C183.257 51.054 183.627 51.0232 183.996 50.9616C184.365 50.8878 184.649 50.8324 184.846 50.7955L186.083 56.6491C185.689 56.7723 185.135 56.9138 184.421 57.0739C183.707 57.2462 182.839 57.3509 181.817 57.3878C179.921 57.4616 178.259 57.2093 176.831 56.6307C175.416 56.0521 174.314 55.1534 173.526 53.9347C172.738 52.7159 172.35 51.1771 172.363 49.3182V21.8409ZM198.778 57.5355C196.968 57.5355 195.356 57.2216 193.94 56.5938C192.524 55.9536 191.404 55.0118 190.579 53.7685C189.767 52.5128 189.36 50.9493 189.36 49.0781C189.36 47.5024 189.65 46.179 190.228 45.108C190.807 44.0369 191.595 43.1752 192.592 42.5227C193.589 41.8703 194.722 41.3778 195.99 41.0455C197.27 40.7131 198.612 40.4792 200.015 40.3438C201.665 40.1714 202.994 40.0114 204.004 39.8636C205.013 39.7036 205.746 39.4697 206.201 39.1619C206.657 38.8542 206.885 38.3987 206.885 37.7955V37.6847C206.885 36.5152 206.515 35.6103 205.777 34.9702C205.05 34.33 204.016 34.0099 202.674 34.0099C201.259 34.0099 200.132 34.3239 199.295 34.9517C198.458 35.5672 197.904 36.3428 197.633 37.2784L190.358 36.6875C190.727 34.964 191.453 33.4744 192.537 32.2188C193.62 30.9508 195.017 29.9782 196.728 29.3011C198.452 28.6117 200.446 28.267 202.711 28.267C204.287 28.267 205.795 28.4517 207.235 28.821C208.688 29.1903 209.975 29.7628 211.095 30.5384C212.227 31.3139 213.12 32.3111 213.772 33.5298C214.425 34.7363 214.751 36.1828 214.751 37.8693V57H207.291V53.0668H207.069C206.614 53.9531 206.004 54.7348 205.241 55.4119C204.478 56.0767 203.561 56.5999 202.49 56.9815C201.419 57.3509 200.181 57.5355 198.778 57.5355ZM201.031 52.1065C202.188 52.1065 203.21 51.8788 204.096 51.4233C204.983 50.9555 205.678 50.3277 206.183 49.5398C206.688 48.7519 206.94 47.8594 206.94 46.8622V43.8523C206.694 44.0123 206.355 44.16 205.924 44.2955C205.506 44.4186 205.032 44.5355 204.502 44.6463C203.973 44.7448 203.444 44.8371 202.914 44.9233C202.385 44.9972 201.905 45.0649 201.474 45.1264C200.551 45.2618 199.744 45.4773 199.055 45.7727C198.366 46.0682 197.83 46.4683 197.449 46.973C197.067 47.4654 196.876 48.081 196.876 48.8196C196.876 49.8906 197.264 50.7093 198.039 51.2756C198.827 51.8295 199.824 52.1065 201.031 52.1065ZM228.721 19.1818V57H220.854V19.1818H228.721Z" fill="black"/>
<path d="M238.29 24.0938V19.1818H267.558V24.0938H255.759V57H250.071V24.0938H238.29ZM270.637 57V28.6364H275.974V33.142H276.27C276.787 31.6155 277.698 30.4152 279.002 29.5412C280.32 28.6548 281.809 28.2116 283.471 28.2116C283.816 28.2116 284.222 28.224 284.69 28.2486C285.17 28.2732 285.546 28.304 285.816 28.3409V33.6222C285.595 33.5606 285.201 33.4929 284.635 33.419C284.068 33.3329 283.502 33.2898 282.936 33.2898C281.631 33.2898 280.467 33.5668 279.446 34.1207C278.436 34.6624 277.636 35.4195 277.045 36.392C276.454 37.3523 276.159 38.4479 276.159 39.679V57H270.637ZM298.595 57.6278C296.797 57.6278 295.172 57.2955 293.72 56.6307C292.267 55.9536 291.116 54.9749 290.267 53.6946C289.43 52.4143 289.011 50.8447 289.011 48.9858C289.011 47.3854 289.319 46.0682 289.934 45.0341C290.55 44 291.381 43.1813 292.427 42.5781C293.474 41.9749 294.643 41.5194 295.936 41.2116C297.228 40.9039 298.546 40.67 299.887 40.5099C301.586 40.313 302.965 40.1529 304.024 40.0298C305.083 39.8944 305.852 39.679 306.332 39.3835C306.812 39.0881 307.052 38.608 307.052 37.9432V37.8139C307.052 36.2012 306.597 34.9517 305.686 34.0653C304.787 33.179 303.445 32.7358 301.66 32.7358C299.801 32.7358 298.336 33.1482 297.265 33.973C296.207 34.7855 295.474 35.6903 295.068 36.6875L289.879 35.5057C290.494 33.7822 291.393 32.3911 292.575 31.3324C293.769 30.2614 295.142 29.4858 296.693 29.0057C298.244 28.5133 299.875 28.267 301.586 28.267C302.719 28.267 303.919 28.4025 305.187 28.6733C306.467 28.9318 307.662 29.4119 308.77 30.1136C309.89 30.8153 310.807 31.8187 311.521 33.1236C312.235 34.4162 312.592 36.0966 312.592 38.1648V57H307.2V53.1222H306.978C306.621 53.8362 306.086 54.5379 305.372 55.2273C304.658 55.9167 303.741 56.4891 302.62 56.9446C301.5 57.4001 300.158 57.6278 298.595 57.6278ZM299.795 53.196C301.322 53.196 302.627 52.8944 303.71 52.2912C304.806 51.688 305.636 50.9001 306.203 49.9276C306.781 48.9427 307.071 47.8902 307.071 46.7699V43.1136C306.874 43.3106 306.492 43.4953 305.926 43.6676C305.372 43.8277 304.738 43.9692 304.024 44.0923C303.31 44.2031 302.614 44.3078 301.937 44.4062C301.26 44.4924 300.694 44.5663 300.238 44.6278C299.167 44.7633 298.189 44.991 297.302 45.3111C296.428 45.6312 295.726 46.0928 295.197 46.696C294.68 47.2869 294.422 48.0748 294.422 49.0597C294.422 50.4261 294.926 51.4602 295.936 52.1619C296.945 52.8513 298.232 53.196 299.795 53.196ZM330.564 57.554C328.274 57.554 326.231 56.9692 324.433 55.7997C322.648 54.6179 321.245 52.9375 320.223 50.7585C319.214 48.5672 318.709 45.9389 318.709 42.8736C318.709 39.8082 319.22 37.1861 320.241 35.0071C321.276 32.8281 322.691 31.16 324.489 30.0028C326.286 28.8456 328.323 28.267 330.601 28.267C332.361 28.267 333.777 28.5625 334.848 29.1534C335.931 29.732 336.768 30.4091 337.359 31.1847C337.963 31.9602 338.43 32.6435 338.763 33.2344H339.095V19.1818H344.616V57H339.224V52.5866H338.763C338.43 53.1899 337.95 53.8793 337.322 54.6548C336.707 55.4304 335.857 56.1075 334.774 56.6861C333.691 57.2647 332.287 57.554 330.564 57.554ZM331.783 52.8452C333.371 52.8452 334.713 52.4266 335.808 51.5895C336.916 50.7401 337.753 49.5644 338.32 48.0625C338.898 46.5606 339.188 44.8125 339.188 42.8182C339.188 40.8485 338.904 39.125 338.338 37.6477C337.772 36.1705 336.941 35.0194 335.845 34.1946C334.75 33.3698 333.395 32.9574 331.783 32.9574C330.121 32.9574 328.736 33.3883 327.628 34.25C326.52 35.1117 325.683 36.2874 325.116 37.777C324.563 39.2666 324.286 40.947 324.286 42.8182C324.286 44.714 324.569 46.419 325.135 47.9332C325.701 49.4474 326.538 50.6477 327.646 51.5341C328.767 52.4081 330.145 52.8452 331.783 52.8452ZM352.497 57V28.6364H358.018V57H352.497ZM355.285 24.2599C354.325 24.2599 353.5 23.9399 352.811 23.2997C352.134 22.6473 351.795 21.8717 351.795 20.973C351.795 20.062 352.134 19.2865 352.811 18.6463C353.5 17.9938 354.325 17.6676 355.285 17.6676C356.245 17.6676 357.064 17.9938 357.741 18.6463C358.431 19.2865 358.775 20.062 358.775 20.973C358.775 21.8717 358.431 22.6473 357.741 23.2997C357.064 23.9399 356.245 24.2599 355.285 24.2599ZM370.967 40.1591V57H365.446V28.6364H370.746V33.2528H371.097C371.749 31.7509 372.771 30.5445 374.162 29.6335C375.565 28.7225 377.332 28.267 379.462 28.267C381.394 28.267 383.087 28.6733 384.54 29.4858C385.992 30.286 387.119 31.4801 387.919 33.0682C388.719 34.6562 389.119 36.6198 389.119 38.9588V57H383.598V39.6236C383.598 37.5677 383.063 35.9612 381.991 34.804C380.92 33.6345 379.449 33.0497 377.578 33.0497C376.298 33.0497 375.159 33.3267 374.162 33.8807C373.177 34.4347 372.395 35.2472 371.817 36.3182C371.25 37.3769 370.967 38.6572 370.967 40.1591ZM408.416 68.2273C406.163 68.2273 404.224 67.9318 402.599 67.3409C400.987 66.75 399.67 65.9683 398.648 64.9957C397.626 64.0232 396.863 62.9583 396.358 61.8011L401.104 59.8438C401.436 60.3854 401.879 60.9579 402.433 61.5611C403 62.1766 403.763 62.6998 404.723 63.1307C405.696 63.5616 406.945 63.777 408.472 63.777C410.564 63.777 412.294 63.2661 413.661 62.2443C415.027 61.2348 415.71 59.6222 415.71 57.4062V51.8295H415.359C415.027 52.4328 414.547 53.1037 413.919 53.8423C413.304 54.581 412.454 55.2211 411.371 55.7628C410.287 56.3045 408.878 56.5753 407.142 56.5753C404.902 56.5753 402.883 56.0521 401.085 55.0057C399.3 53.947 397.884 52.3897 396.838 50.3338C395.804 48.2656 395.287 45.7235 395.287 42.7074C395.287 39.6913 395.798 37.1061 396.82 34.9517C397.854 32.7973 399.269 31.1477 401.067 30.0028C402.864 28.8456 404.902 28.267 407.179 28.267C408.939 28.267 410.361 28.5625 411.445 29.1534C412.528 29.732 413.371 30.4091 413.974 31.1847C414.59 31.9602 415.064 32.6435 415.396 33.2344H415.803V28.6364H421.213V57.6278C421.213 60.0653 420.647 62.0658 419.514 63.6293C418.382 65.1927 416.849 66.3499 414.916 67.1009C412.996 67.8518 410.829 68.2273 408.416 68.2273ZM408.361 51.9957C409.949 51.9957 411.291 51.6264 412.386 50.8878C413.494 50.1368 414.331 49.0658 414.898 47.6747C415.476 46.2713 415.766 44.5909 415.766 42.6335C415.766 40.7254 415.482 39.045 414.916 37.5923C414.35 36.1397 413.519 35.0071 412.423 34.1946C411.328 33.3698 409.973 32.9574 408.361 32.9574C406.699 32.9574 405.314 33.3883 404.206 34.25C403.098 35.0994 402.261 36.2566 401.695 37.7216C401.141 39.1866 400.864 40.8239 400.864 42.6335C400.864 44.4924 401.147 46.1236 401.713 47.527C402.279 48.9304 403.116 50.026 404.224 50.8139C405.345 51.6018 406.723 51.9957 408.361 51.9957Z" fill="black"/>
<path d="M9.83896 25.2931H21.993L32.4107 62.9127H20.8354L9.83896 25.2931Z" fill="#235F96"/>
<path fill-rule="evenodd" clip-rule="evenodd" d="M50.6124 15.0739L44.6118 0L32.047 10.2642L35.6139 11.1882L20.8354 62.9127H32.4107L46.8907 14.1097L50.6124 15.0739Z" fill="#0779FF"/>
<path d="M21.993 25.2931H9.83897L3.8147e-06 63.2021H11.5753L21.993 25.2931Z" fill="#0779FF"/>
</svg>
