<svg width="208" height="220" viewBox="0 0 208 220" fill="none" xmlns="http://www.w3.org/2000/svg">
<path d="M92.6001 210.88H60.5103V144.85C60.5103 135.99 67.7001 128.8 76.5601 128.8H188.13V160.89H92.6104L92.6001 210.88Z" fill="#0666F9"/>
<path d="M200.89 69.69C198.9 63.99 196.36 58.43 193.38 53.1C183.96 36.4 170.4 23.17 153.04 13.82C136.03 4.65998 116.18 0 94.02 0H76.54C67.68 0 60.4902 7.17999 60.4902 16.05V32.1V75.02C60.4902 83.88 67.67 91.07 76.54 91.07H173.54C174.66 96.78 175.24 102.8 175.24 109.09C175.24 119.95 173.51 130.09 170.06 139.24C168.76 142.74 167.19 146.14 165.37 149.4C158.85 161.13 149.77 170.12 137.61 176.87C125.4 183.69 110.73 187.14 94.0103 187.14H32.0903V31.65H0V219.22H94.02C116.26 219.22 136.19 214.41 153.23 204.91C170.51 195.3 184.04 181.87 193.43 164.99C196.01 160.35 198.28 155.46 200.12 150.5C204.92 137.76 207.34 123.83 207.34 109.08C207.34 95.07 205.17 81.82 200.89 69.69ZM92.5903 58.97V32.09H94.02C110.8 32.09 125.53 35.44 137.81 42.05C146.19 46.58 153.08 52.16 158.67 58.96H92.5903V58.97Z" fill="white"/>
<path d="M173.54 91.0601H76.54C67.68 91.0601 60.4902 83.87 60.4902 75.01V16.04H92.5801V58.9601H158.66C161.16 61.9901 163.39 65.2801 165.4 68.8101C167.47 72.5001 169.22 76.37 170.61 80.33V80.35C171.83 83.78 172.79 87.3401 173.54 91.0601Z" fill="url(#paint0_linear_53_2)"/>
<path d="M84.1001 187.13H32.0903L0 219.22H84.1001" fill="url(#paint1_linear_53_2)"/>
<path d="M92.6001 219.22H60.5103V144.85C60.5103 135.99 67.7001 128.8 76.5601 128.8H177.37V160.89H92.6104V219.22H92.6001Z" fill="white"/>
<path d="M153.23 204.91C170.51 195.3 184.04 181.87 193.43 164.99C196.01 160.35 198.28 155.46 200.12 150.5C204.92 137.76 207.34 123.83 207.34 109.08H175.25C175.25 119.94 173.52 130.08 170.07 139.23C168.77 142.73 167.2 146.13 165.38 149.39C158.86 161.12 149.78 170.11 137.62 176.86L153.23 204.91Z" fill="white"/>
<defs>
<linearGradient id="paint0_linear_53_2" x1="179.5" y1="55.0173" x2="106.16" y2="53.8847" gradientUnits="userSpaceOnUse">
<stop offset="0.0101" stop-color="#0A6592"/>
<stop offset="0.9899" stop-color="white" stop-opacity="0"/>
</linearGradient>
<linearGradient id="paint1_linear_53_2" x1="100.904" y1="203.175" x2="17.764" y2="203.175" gradientUnits="userSpaceOnUse">
<stop offset="0.1805" stop-color="#0A6592"/>
<stop offset="0.9899" stop-color="white" stop-opacity="0"/>
</linearGradient>
</defs>
</svg>
