<svg width="476" height="69" viewBox="0 0 476 69" fill="none" xmlns="http://www.w3.org/2000/svg">
<path d="M104.168 6.632C107.996 6.632 111.263 8.00467 113.97 10.75C116.715 13.4567 118.088 16.7433 118.088 20.61V33.022C118.088 36.8887 116.715 40.1947 113.97 42.94C111.263 45.6467 107.996 47 104.168 47H90.19V6.632H104.168ZM110.722 33.022V20.61C110.722 18.7927 110.084 17.246 108.808 15.97C107.532 14.6553 105.985 13.998 104.168 13.998H97.556V39.634H104.168C105.985 39.634 107.532 38.996 108.808 37.72C110.084 36.4053 110.722 34.8393 110.722 33.022ZM143.097 18.928H150.463V33.718C150.463 37.5847 149.091 40.8907 146.345 43.636C143.639 46.3427 140.352 47.696 136.485 47.696C132.657 47.696 129.371 46.3427 126.625 43.636C123.919 40.8907 122.565 37.5847 122.565 33.718V18.928H129.931V33.718C129.931 35.5353 130.569 37.1013 131.845 38.416C133.16 39.692 134.707 40.33 136.485 40.33C138.303 40.33 139.849 39.692 141.125 38.416C142.44 37.1013 143.097 35.5353 143.097 33.718V18.928ZM183.559 21.19C185.531 19.218 187.89 18.232 190.635 18.232C193.419 18.232 195.778 19.218 197.711 21.19C199.683 23.162 200.669 25.5207 200.669 28.266V47H193.303V28.266C193.303 27.5313 193.032 26.9127 192.491 26.41C191.988 25.8687 191.37 25.598 190.635 25.598C189.9 25.598 189.262 25.8687 188.721 26.41C188.218 26.9127 187.967 27.5313 187.967 28.266V37.662C187.967 40.4073 186.981 42.766 185.009 44.738C183.076 46.71 180.717 47.696 177.933 47.696C175.188 47.696 172.829 46.71 170.857 44.738C168.924 42.766 167.957 40.4073 167.957 37.662V28.266C167.957 27.5313 167.686 26.9127 167.145 26.41C166.642 25.8687 166.024 25.598 165.289 25.598C164.554 25.598 163.916 25.8687 163.375 26.41C162.872 26.9127 162.621 27.5313 162.621 28.266V47H155.255V28.266C155.255 25.5207 156.222 23.162 158.155 21.19C160.127 19.218 162.486 18.232 165.231 18.232C168.015 18.232 170.393 19.218 172.365 21.19C174.337 23.162 175.323 25.5207 175.323 28.266V37.662C175.323 38.3967 175.574 39.0153 176.077 39.518C176.618 40.0207 177.256 40.272 177.991 40.272C178.726 40.272 179.344 40.0207 179.847 39.518C180.35 39.0153 180.601 38.3967 180.601 37.662V28.266C180.601 25.5207 181.587 23.162 183.559 21.19ZM234.139 21.19C236.111 19.218 238.47 18.232 241.215 18.232C243.999 18.232 246.358 19.218 248.291 21.19C250.263 23.162 251.249 25.5207 251.249 28.266V47H243.883V28.266C243.883 27.5313 243.613 26.9127 243.071 26.41C242.569 25.8687 241.95 25.598 241.215 25.598C240.481 25.598 239.843 25.8687 239.301 26.41C238.799 26.9127 238.547 27.5313 238.547 28.266V37.662C238.547 40.4073 237.561 42.766 235.589 44.738C233.656 46.71 231.297 47.696 228.513 47.696C225.768 47.696 223.409 46.71 221.437 44.738C219.504 42.766 218.537 40.4073 218.537 37.662V28.266C218.537 27.5313 218.267 26.9127 217.725 26.41C217.223 25.8687 216.604 25.598 215.869 25.598C215.135 25.598 214.497 25.8687 213.955 26.41C213.453 26.9127 213.201 27.5313 213.201 28.266V47H205.835V28.266C205.835 25.5207 206.802 23.162 208.735 21.19C210.707 19.218 213.066 18.232 215.811 18.232C218.595 18.232 220.973 19.218 222.945 21.19C224.917 23.162 225.903 25.5207 225.903 28.266V37.662C225.903 38.3967 226.155 39.0153 226.657 39.518C227.199 40.0207 227.837 40.272 228.571 40.272C229.306 40.272 229.925 40.0207 230.427 39.518C230.93 39.0153 231.181 38.3967 231.181 37.662V28.266C231.181 25.5207 232.167 23.162 234.139 21.19ZM276.599 18.928H283.965V49.204C283.849 52.9933 282.438 56.2027 279.731 58.832C277.025 61.5 273.796 62.834 270.045 62.834C266.179 62.834 262.873 61.4613 260.127 58.716C257.421 55.9707 256.067 52.684 256.067 48.856H263.433C263.433 50.6733 264.071 52.22 265.347 53.496C266.662 54.8107 268.209 55.468 269.987 55.468C271.805 55.468 273.351 54.8107 274.627 53.496C275.942 52.22 276.599 50.6733 276.599 48.856V46.014C274.55 47.1353 272.365 47.696 270.045 47.696C266.179 47.696 262.873 46.3427 260.127 43.636C257.421 40.8907 256.067 37.5847 256.067 33.718V18.928H263.433V33.718C263.433 35.5353 264.071 37.1013 265.347 38.416C266.662 39.692 268.209 40.33 269.987 40.33C271.805 40.33 273.351 39.692 274.627 38.416C275.942 37.1013 276.599 35.5353 276.599 33.718V18.928ZM314.957 6.632V13.998H304.691V47H297.325V13.998H287.059V6.632H314.957ZM327.196 18.928H333.228V26.352H327.196C325.378 26.352 323.812 26.99 322.498 28.266C321.222 29.542 320.584 31.0887 320.584 32.906V47H313.218V32.906C313.218 29.078 314.571 25.7913 317.278 23.046C320.023 20.3007 323.329 18.928 327.196 18.928ZM349.612 18.232C352.125 18.232 354.445 18.87 356.572 20.146C358.737 21.3833 360.438 23.0847 361.676 25.25C362.913 27.3767 363.532 29.6967 363.532 32.21V47H356.166V32.21C356.166 30.3927 355.508 28.846 354.194 27.57C352.918 26.2553 351.371 25.598 349.554 25.598C347.775 25.598 346.228 26.2553 344.914 27.57C343.638 28.846 343 30.3927 343 32.21V33.718C343 35.5353 343.638 37.082 344.914 38.358C346.228 39.634 347.794 40.272 349.612 40.272C350.578 40.272 351.526 40.04 352.454 39.576V47.348C351.526 47.58 350.578 47.696 349.612 47.696C345.745 47.696 342.439 46.3233 339.694 43.578C336.987 40.8327 335.634 37.546 335.634 33.718V32.21C335.634 28.382 336.987 25.0953 339.694 22.35C342.439 19.6047 345.745 18.232 349.612 18.232ZM387.998 6.632H395.364V33.718C395.364 37.546 393.991 40.8327 391.246 43.578C388.539 46.3233 385.252 47.696 381.386 47.696C377.558 47.696 374.271 46.3233 371.526 43.578C368.819 40.8327 367.466 37.546 367.466 33.718V32.21C367.466 28.382 368.819 25.0953 371.526 22.35C374.271 19.6047 377.577 18.232 381.444 18.232C383.764 18.232 385.948 18.7927 387.998 19.914V6.632ZM387.998 33.718V32.21C387.998 30.3927 387.34 28.846 386.026 27.57C384.75 26.2553 383.203 25.598 381.386 25.598C379.607 25.598 378.06 26.2553 376.746 27.57C375.47 28.846 374.832 30.3927 374.832 32.21V33.718C374.832 35.5353 375.47 37.082 376.746 38.358C378.06 39.634 379.607 40.272 381.386 40.272C383.203 40.272 384.75 39.634 386.026 38.358C387.34 37.082 387.998 35.5353 387.998 33.718ZM407.883 47H400.459V18.928H407.883V47ZM404.171 14.288C403.398 14.288 402.683 14.114 402.025 13.766C401.407 13.3793 400.904 12.8767 400.517 12.258C400.169 11.6007 399.995 10.8853 399.995 10.112C399.995 8.952 400.401 7.966 401.213 7.154C402.025 6.342 403.011 5.936 404.171 5.936C405.331 5.936 406.317 6.342 407.129 7.154C407.941 7.966 408.347 8.952 408.347 10.112C408.347 11.272 407.941 12.258 407.129 13.07C406.317 13.882 405.331 14.288 404.171 14.288ZM417.08 22.35C419.825 19.6047 423.112 18.232 426.94 18.232C430.806 18.232 434.093 19.6047 436.8 22.35C439.545 25.0953 440.918 28.382 440.918 32.21V47H433.552V32.21C433.552 30.3927 432.894 28.846 431.58 27.57C430.304 26.2553 428.776 25.598 426.998 25.598C426.07 25.598 425.2 25.772 424.388 26.12C423.576 26.468 422.88 26.9513 422.3 27.57C421.72 28.15 421.256 28.846 420.908 29.658C420.56 30.47 420.386 31.3207 420.386 32.21V47H413.02V32.21C413.02 28.382 414.373 25.0953 417.08 22.35ZM448.897 22.35C451.642 19.6047 454.929 18.232 458.757 18.232C462.624 18.232 465.91 19.6047 468.617 22.35C471.362 25.0953 472.735 28.382 472.735 32.21V49.204C472.696 53.032 471.304 56.2993 468.559 59.006C465.852 61.7127 462.604 63.066 458.815 63.066C455.528 63.066 452.609 62.0413 450.057 59.992C447.544 57.9427 445.92 55.352 445.185 52.22L452.435 50.654C452.783 52.0847 453.537 53.264 454.697 54.192C455.896 55.1587 457.268 55.642 458.815 55.642C460.594 55.642 462.121 55.004 463.397 53.728C464.712 52.452 465.369 50.9053 465.369 49.088V46.014C463.32 47.1353 461.135 47.696 458.815 47.696C454.948 47.696 451.642 46.3233 448.897 43.578C446.19 40.8327 444.837 37.546 444.837 33.718V32.21C444.837 28.382 446.19 25.0953 448.897 22.35ZM465.369 33.718V32.21C465.369 30.3927 464.712 28.846 463.397 27.57C462.121 26.2553 460.574 25.598 458.757 25.598C456.978 25.598 455.432 26.2553 454.117 27.57C452.841 28.846 452.203 30.3927 452.203 32.21V33.718C452.203 35.5353 452.841 37.082 454.117 38.358C455.432 39.634 456.978 40.272 458.757 40.272C460.574 40.272 462.121 39.634 463.397 38.358C464.712 37.082 465.369 35.5353 465.369 33.718Z" fill="white"/>
<path d="M38.6411 11.0383C41.3333 8.3461 44.5534 7 48.3014 7C52.1022 7 55.3223 8.3461 57.9617 11.0383C60.6539 13.7305 62 16.9506 62 20.6986V41.2465C62 44.0234 59.7488 46.2746 56.9719 46.2746C54.195 46.2746 51.9438 44.0234 51.9438 41.2465V20.6986C51.9438 19.6956 51.5743 18.851 50.8353 18.1648C50.149 17.4257 49.3044 17.0562 48.3014 17.0562C47.2984 17.0562 46.4274 17.4257 45.6884 18.1648C45.0021 18.851 44.659 19.6956 44.659 20.6986V33.5262C44.659 37.2742 43.3129 40.4943 40.6207 43.1865C37.9813 45.8787 34.7612 47.2248 30.9604 47.2248C27.2124 47.2248 23.9923 45.8787 21.3001 43.1865C18.6607 40.4943 17.341 37.2742 17.341 33.5262V20.6986C17.341 19.6956 16.9715 18.851 16.2324 18.1648C15.5462 17.4257 14.7016 17.0562 13.6986 17.0562C12.6956 17.0562 11.8246 17.4257 11.0856 18.1648C10.3993 18.851 10.0562 19.6956 10.0562 20.6986V41.2465C10.0562 44.0234 7.80504 46.2746 5.0281 46.2746C2.25116 46.2746 0 44.0234 0 41.2465V20.6986C0 16.9506 1.31971 13.7305 3.95913 11.0383C6.65134 8.3461 9.87144 7 13.6194 7C17.4202 7 20.6667 8.3461 23.3589 11.0383C26.0511 13.7305 27.3972 16.9506 27.3972 20.6986V33.5262C27.3972 34.5292 27.7403 35.3738 28.4266 36.06C29.1656 36.7463 30.0366 37.0894 31.0396 37.0894C32.0426 37.0894 32.8872 36.7463 33.5734 36.06C34.2597 35.3738 34.6028 34.5292 34.6028 33.5262V20.6986C34.6028 16.9506 35.9489 13.7305 38.6411 11.0383Z" fill="url(#paint0_linear_19_42)"/>
<path d="M38.6411 11.0383C41.3333 8.3461 44.5534 7 48.3014 7C52.1022 7 55.3223 8.3461 57.9617 11.0383C60.6539 13.7305 62 16.9506 62 20.6986V41.2465C62 44.0234 59.7488 46.2746 56.9719 46.2746C54.195 46.2746 51.9438 44.0234 51.9438 41.2465V20.6986C51.9438 19.6956 51.5743 18.851 50.8353 18.1648C50.149 17.4257 49.3044 17.0562 48.3014 17.0562C47.2984 17.0562 46.4274 17.4257 45.6884 18.1648C45.0021 18.851 44.659 19.6956 44.659 20.6986V33.5262C44.659 37.2742 43.3129 40.4943 40.6207 43.1865C37.9813 45.8787 34.7612 47.2248 30.9604 47.2248C27.2124 47.2248 23.9923 45.8787 21.3001 43.1865C18.6607 40.4943 17.341 37.2742 17.341 33.5262V20.6986C17.341 19.6956 16.9715 18.851 16.2324 18.1648C15.5462 17.4257 14.7016 17.0562 13.6986 17.0562C12.6956 17.0562 11.8246 17.4257 11.0856 18.1648C10.3993 18.851 10.0562 19.6956 10.0562 20.6986V41.2465C10.0562 44.0234 7.80504 46.2746 5.0281 46.2746C2.25116 46.2746 0 44.0234 0 41.2465V20.6986C0 16.9506 1.31971 13.7305 3.95913 11.0383C6.65134 8.3461 9.87144 7 13.6194 7C17.4202 7 20.6667 8.3461 23.3589 11.0383C26.0511 13.7305 27.3972 16.9506 27.3972 20.6986V33.5262C27.3972 34.5292 27.7403 35.3738 28.4266 36.06C29.1656 36.7463 30.0366 37.0894 31.0396 37.0894C32.0426 37.0894 32.8872 36.7463 33.5734 36.06C34.2597 35.3738 34.6028 34.5292 34.6028 33.5262V20.6986C34.6028 16.9506 35.9489 13.7305 38.6411 11.0383Z" stroke="url(#paint1_linear_19_42)"/>
<path fill-rule="evenodd" clip-rule="evenodd" d="M31.0208 38.7727C30.5785 37.5844 29.3557 36.9228 28.4266 36.06C27.7403 35.3738 27.3972 34.5292 27.3972 33.5262V20.6986C27.3972 16.9506 26.0511 13.7305 23.3589 11.0383C20.6667 8.3461 17.4202 7 13.6194 7C9.87144 7 6.65134 8.3461 3.95913 11.0383C1.31971 13.7305 0 16.9506 0 20.6986V41.2465C0 44.0234 2.25116 46.2746 5.0281 46.2746C7.80504 46.2746 10.0562 44.0234 10.0562 41.2465V20.6986C10.0562 19.6956 10.3993 18.851 11.0856 18.1648C11.8246 17.4257 12.6956 17.0562 13.6986 17.0562C14.7016 17.0562 15.5462 17.4257 16.2324 18.1648C16.9715 18.851 17.341 19.6956 17.341 20.6986V33.5262C17.341 37.2742 18.6607 40.4943 21.3001 43.1865C22.0195 43.9058 22.7765 44.529 23.5712 45.0562C26.613 47.0738 31.1479 45.3587 31.4783 41.7235C31.5699 40.716 31.368 39.7058 31.0208 38.7727Z" fill="url(#paint2_linear_19_42)"/>
<defs>
<linearGradient id="paint0_linear_19_42" x1="62.3076" y1="7" x2="34.7235" y2="40.4255" gradientUnits="userSpaceOnUse">
<stop stop-color="#0B6EFF"/>
<stop offset="0.9999" stop-color="#5C228E"/>
<stop offset="1" stop-color="#5A1794"/>
</linearGradient>
<linearGradient id="paint1_linear_19_42" x1="31" y1="7" x2="31" y2="47.2248" gradientUnits="userSpaceOnUse">
<stop stop-color="#D5D5D5"/>
<stop offset="1" stop-color="#F5F5F5"/>
</linearGradient>
<linearGradient id="paint2_linear_19_42" x1="15.7502" y1="7" x2="15.7502" y2="46.2746" gradientUnits="userSpaceOnUse">
<stop stop-color="#8D02FF"/>
<stop offset="1" stop-color="#0473FF"/>
</linearGradient>
</defs>
</svg>
