<svg width="49" height="42" viewBox="0 0 49 42" fill="none" xmlns="http://www.w3.org/2000/svg">
<path fill-rule="evenodd" clip-rule="evenodd" d="M20.8502 0.0937142C20.0808 0.183215 19.3016 0.402614 19.119 0.581268C18.9361 0.759921 18.5087 0.906188 18.1691 0.906188C17.4563 0.906188 14.9612 1.99866 14.7881 2.38626C14.7238 2.53009 14.5206 2.64745 14.3359 2.64745C13.087 2.64745 1.73014 13.2894 0.546265 15.569C-0.580605 17.739 0.0552269 20.1903 2.27539 22.2367C3.19486 23.0843 3.58483 23.1944 5.67244 23.1944C7.72823 23.1944 8.18044 23.0718 9.19435 22.2388C10.6951 21.0063 11.2323 20.4957 11.2323 20.3011C11.2323 20.0984 15.7247 15.5328 15.9241 15.5328C16.007 15.5328 16.5256 15.102 17.0765 14.5751C20.6477 11.1612 24.1364 10.2881 28.2658 11.7752C28.8999 12.0033 29.4189 12.3153 29.4189 12.4685C29.4189 12.6214 29.6522 12.7468 29.9376 12.7468C30.2226 12.7468 32.3938 14.6663 34.7626 17.0129C41.0804 23.2713 40.9719 23.1944 43.4897 23.1944C45.9152 23.1944 47.4796 22.3 48.4529 20.3575C49.0597 19.1459 49.2112 15.5328 48.6547 15.5328C48.4624 15.5328 48.305 15.3214 48.305 15.0627C48.305 14.8043 46.0915 12.3801 43.3859 9.67554C38.3982 4.68995 34.9795 2.15015 32.042 1.24956C31.2725 1.0138 30.3545 0.673555 30.0016 0.493857C29.2741 0.123316 22.9686 -0.1525 20.8502 0.0937142ZM22.5989 13.523C22.0218 13.7177 21.101 14.1109 20.5522 14.3971C19.2281 15.0881 10.6993 23.6049 10.018 24.9165C8.39658 28.0389 10.6279 32.3123 14.0302 32.6003C17.2223 32.8706 17.2671 32.8455 22.4485 27.9114C23.8066 26.6184 24.548 26.1409 24.8967 26.3352C25.172 26.4888 26.7675 27.9602 28.4421 29.6057C31.6461 32.7532 31.8304 32.8378 34.9969 32.6125C36.4459 32.5098 38.2975 31.1826 39.0288 29.7224C39.7202 28.3426 39.7073 26.2353 38.9994 24.8311C38.2093 23.2647 28.7415 14.1562 27.6702 13.9322C27.1893 13.8316 26.5227 13.6021 26.1887 13.4224C25.4353 13.0167 23.9797 13.0574 22.5989 13.523ZM22.0299 31.4654C20.0455 33.5416 18.9266 35.4563 18.9266 36.7762C18.9266 37.1972 19.197 38.1086 19.5271 38.8016C20.6162 41.0872 22.0348 42 24.4977 42C26.7672 42 28.5285 40.9671 29.4308 39.1071C30.1527 37.62 30.3671 35.0349 29.7686 35.0349C29.5763 35.0349 29.4189 34.7595 29.4189 34.4227C29.4189 33.7203 25.1227 29.4629 24.4137 29.4629C24.1553 29.4629 23.0823 30.3642 22.0299 31.4654Z" fill="black"/>
</svg>
