<svg width="16" height="16" viewBox="0 0 16 16" fill="none" xmlns="http://www.w3.org/2000/svg">
<path d="M11.7947 7.41569C11.7258 7.38266 11.6558 7.35087 11.5849 7.32043C11.4614 5.04485 10.218 3.74208 8.13015 3.72875C8.12069 3.72869 8.11129 3.72869 8.10183 3.72869C6.85303 3.72869 5.81442 4.26174 5.17516 5.23173L6.32341 6.0194C6.80096 5.29486 7.55043 5.1404 8.10238 5.1404C8.10875 5.1404 8.11515 5.1404 8.12146 5.14046C8.80891 5.14484 9.32766 5.34472 9.66341 5.7345C9.90775 6.01828 10.0712 6.41042 10.1521 6.90532C9.54258 6.80173 8.88341 6.76987 8.17874 6.81027C6.19372 6.92462 4.91759 8.08233 5.0033 9.691C5.04679 10.507 5.4533 11.209 6.14791 11.6676C6.7352 12.0553 7.49158 12.2448 8.27769 12.2019C9.31583 12.145 10.1302 11.7489 10.6984 11.0247C11.1299 10.4747 11.4028 9.76192 11.5233 8.86383C12.0181 9.16242 12.3847 9.55533 12.5872 10.0277C12.9316 10.8306 12.9517 12.15 11.8751 13.2257C10.9318 14.168 9.79799 14.5757 8.08445 14.5883C6.18368 14.5742 4.74614 13.9646 3.8115 12.7764C2.93629 11.6638 2.48397 10.0568 2.46709 8C2.48397 5.94315 2.93629 4.33613 3.8115 3.22356C4.74614 2.03541 6.18365 1.42583 8.08443 1.41171C9.999 1.42594 11.4616 2.03845 12.432 3.23233C12.9078 3.8178 13.2666 4.55407 13.5031 5.41253L14.8487 5.05352C14.562 3.99685 14.1109 3.08631 13.4971 2.33117C12.253 0.800557 10.4335 0.0162623 8.08912 0H8.07974C5.74013 0.0162058 3.941 0.803483 2.73235 2.33994C1.65682 3.7072 1.10203 5.60964 1.08339 7.99438L1.08333 8L1.08339 8.00563C1.10203 10.3903 1.65682 12.2928 2.73235 13.6601C3.941 15.1965 5.74013 15.9838 8.07974 16H8.08912C10.1692 15.9856 11.6353 15.441 12.8432 14.2343C14.4234 12.6555 14.3758 10.6766 13.855 9.46175C13.4813 8.59058 12.7689 7.88302 11.7947 7.41569ZM8.20337 10.7923C7.33337 10.8413 6.42953 10.4508 6.38496 9.61433C6.35193 8.99417 6.82631 8.30217 8.25676 8.21973C8.42058 8.21028 8.58133 8.20567 8.73925 8.20567C9.25883 8.20567 9.74491 8.25614 10.1868 8.35275C10.022 10.4113 9.05516 10.7455 8.20337 10.7923Z" fill="white"/>
</svg>
